<?xml version="1.0" encoding="UTF-8" standalone="no"?>
<svg xmlns:dc="http://purl.org/dc/elements/1.1/" xmlns:cc="http://creativecommons.org/ns#" xmlns:rdf="http://www.w3.org/1999/02/22-rdf-syntax-ns#" xmlns:svg="http://www.w3.org/2000/svg" xmlns="http://www.w3.org/2000/svg" xmlns:sodipodi="http://sodipodi.sourceforge.net/DTD/sodipodi-0.dtd" xmlns:inkscape="http://www.inkscape.org/namespaces/inkscape" width="1921" height="873" viewBox="0 0 990 450" version="1.1" id="svg8" inkscape:version="0.92.4 (5da689c313, 2019-01-14)" sodipodi:docname="KY-009.svg" inkscape:export-filename="C:\Users\Entwicklung5.SIMACGMBH\Desktop\SEN-KIT02\Abbildungen Fertig\KY-009\KY-009.png" inkscape:export-xdpi="93" inkscape:export-ydpi="93">
  <defs id="defs2">
    <inkscape:perspective sodipodi:type="inkscape:persp3d" inkscape:vp_x="0 : 148.5 : 1" inkscape:vp_y="0 : 999.99999 : 0" inkscape:vp_z="209.99999 : 148.5 : 1" inkscape:persp3d-origin="104.99999 : 99 : 1" id="perspective876"/>
  </defs>
  <sodipodi:namedview id="base" pagecolor="#323232" bordercolor="#666666" borderopacity="1.0" inkscape:pageopacity="0" inkscape:pageshadow="2" inkscape:zoom="0.2271736" inkscape:cx="1588.3229" inkscape:cy="771.89172" inkscape:document-units="mm" inkscape:current-layer="layer1" showgrid="false" inkscape:window-width="1920" inkscape:window-height="1017" inkscape:window-x="-8" inkscape:window-y="-8" inkscape:window-maximized="1" width="500mm" showguides="true" inkscape:lockguides="false"/>
  <metadata id="metadata5">
    <rdf:RDF>
      <cc:Work rdf:about="">
        <dc:format>image/svg+xml</dc:format>
        <dc:type rdf:resource="http://purl.org/dc/dcmitype/StillImage"/>
        <dc:title/>
      </cc:Work>
    </rdf:RDF>
  </metadata>
  <g inkscape:label="Ebene 1" inkscape:groupmode="layer" id="layer1" transform="translate(0.31582593,152.81107)">
    <rect style="opacity:1;fill:#000000;fill-opacity:1;stroke:#000000;stroke-width:0;stroke-miterlimit:4;stroke-dasharray:none;stroke-opacity:1" id="rect815" width="449.65744" height="769.66937" x="-297.18872" y="-0.20369829" transform="matrix(-7.3539781e-4,-0.99999973,0.9999999,-4.4522825e-4,0,0)"/>
    <text xml:space="preserve" style="font-style:normal;font-variant:normal;font-weight:normal;font-stretch:normal;font-size:4.23333311px;line-height:1.25;font-family:Calibri;-inkscape-font-specification:'Calibri, Normal';font-variant-ligatures:normal;font-variant-caps:normal;font-variant-numeric:normal;font-feature-settings:normal;text-align:start;letter-spacing:0px;word-spacing:0px;writing-mode:lr-tb;text-anchor:start;fill:#ffffff;fill-opacity:1;stroke:none;stroke-width:0.26458332" x="183.04044" y="308.77509" id="text819"><tspan sodipodi:role="line" id="tspan817" x="183.04044" y="312.47925" style="fill:#ffffff;fill-opacity:1;stroke-width:0.26458332"/></text>
    <rect style="opacity:1;fill:#ffffff;fill-opacity:1;stroke:#000000;stroke-width:0;stroke-miterlimit:4;stroke-dasharray:none;stroke-opacity:1" id="rect821" width="314.93799" height="79.867264" x="-230.21951" y="683.18689" ry="0" transform="matrix(-4.2155308e-4,-0.99999991,0.9999997,-7.7669889e-4,0,0)"/>
    <rect style="opacity:1;fill:#1a1a1a;fill-opacity:1;stroke:#000000;stroke-width:0;stroke-miterlimit:4;stroke-dasharray:none;stroke-opacity:1" id="rect825" width="76.666504" height="70.899185" x="-228.49655" y="687.71765" ry="14.842078" transform="rotate(-90.032785)"/>
    <rect y="687.71765" x="-71.921898" height="70.899185" width="76.666504" id="rect872" style="opacity:1;fill:#1a1a1a;fill-opacity:1;stroke:#000000;stroke-width:0;stroke-miterlimit:4;stroke-dasharray:none;stroke-opacity:1" ry="14.842078" transform="rotate(-90.032785)"/>
    <rect y="687.71765" x="-150.2092" height="70.899185" width="76.666504" id="rect874" style="opacity:1;fill:#1a1a1a;fill-opacity:1;stroke:#000000;stroke-width:0;stroke-miterlimit:4;stroke-dasharray:none;stroke-opacity:1" ry="12.930591" transform="rotate(-90.032785)"/>
    <rect style="opacity:0.98999999;fill:#808080;fill-opacity:1;stroke:#ffffff;stroke-width:0;stroke-linejoin:round;stroke-miterlimit:4;stroke-dasharray:none;stroke-opacity:1;paint-order:normal" id="rect947" width="7.921217" height="149.99509" x="-194.46701" y="726.29803" transform="matrix(-6.2337084e-4,-0.99999981,0.99999986,-5.2524095e-4,0,0)"/>
    <rect y="726.302" x="-115.7268" height="149.99509" width="7.921217" id="rect949" style="opacity:0.98999999;fill:#808080;fill-opacity:1;stroke:#ffffff;stroke-width:0;stroke-linejoin:round;stroke-miterlimit:4;stroke-dasharray:none;stroke-opacity:1;paint-order:normal" transform="matrix(-6.2337084e-4,-0.99999981,0.99999986,-5.2524095e-4,0,0)"/>
    <rect style="opacity:0.98999999;fill:#808080;fill-opacity:1;stroke:#ffffff;stroke-width:0;stroke-linejoin:round;stroke-miterlimit:4;stroke-dasharray:none;stroke-opacity:1;paint-order:normal" id="rect951" width="7.921217" height="149.99509" x="-37.892632" y="726.30603" transform="matrix(-6.2337084e-4,-0.99999981,0.99999986,-5.2524095e-4,0,0)"/>
    <text xml:space="preserve" style="font-style:normal;font-variant:normal;font-weight:normal;font-stretch:normal;font-size:11.28888893px;line-height:1.25;font-family:'Proxy 1';-inkscape-font-specification:'Proxy 1, ';font-variant-ligatures:normal;font-variant-caps:normal;font-variant-numeric:normal;font-feature-settings:normal;text-align:start;letter-spacing:0px;word-spacing:0px;writing-mode:lr-tb;text-anchor:start;fill:#000000;fill-opacity:1;stroke:none;stroke-width:0.26458332" x="-361.41769" y="-114.89285" id="text959"><tspan sodipodi:role="line" id="tspan957" x="-361.41769" y="-104.49899" style="fill:#000000;stroke-width:0.26458332"/></text>
    <text xml:space="preserve" style="font-style:normal;font-variant:normal;font-weight:normal;font-stretch:normal;font-size:11.28888893px;line-height:1.25;font-family:'Proxy 1';-inkscape-font-specification:'Proxy 1, ';font-variant-ligatures:normal;font-variant-caps:normal;font-variant-numeric:normal;font-feature-settings:normal;text-align:start;letter-spacing:0px;word-spacing:0px;writing-mode:lr-tb;text-anchor:start;fill:#ffffff;fill-opacity:1;stroke:none;stroke-width:0.26458332" x="170.41783" y="337.19574" id="text963"><tspan sodipodi:role="line" id="tspan961" x="170.41783" y="347.5896" style="fill:#ffffff;stroke-width:0.26458332"/></text>
    <text xml:space="preserve" style="font-style:normal;font-variant:normal;font-weight:normal;font-stretch:normal;font-size:11.28888893px;line-height:1.25;font-family:'Proxy 1';-inkscape-font-specification:'Proxy 1, ';font-variant-ligatures:normal;font-variant-caps:normal;font-variant-numeric:normal;font-feature-settings:normal;text-align:start;letter-spacing:0px;word-spacing:0px;writing-mode:lr-tb;text-anchor:start;fill:#00ff00;fill-opacity:1;stroke:none;stroke-width:0.26458332" x="246.03561" y="312.36578" id="text967"><tspan sodipodi:role="line" id="tspan965" x="246.03561" y="322.75964" style="fill:#00ff00;fill-opacity:1;stroke-width:0.26458332"/></text>
    <flowRoot xml:space="preserve" id="flowRoot969" style="font-style:normal;font-variant:normal;font-weight:normal;font-stretch:normal;font-size:42.66666794px;line-height:1.25;font-family:'Proxy 1';-inkscape-font-specification:'Proxy 1, ';font-variant-ligatures:normal;font-variant-caps:normal;font-variant-numeric:normal;font-feature-settings:normal;text-align:start;letter-spacing:0px;word-spacing:0px;writing-mode:lr-tb;text-anchor:start;fill:#000000;fill-opacity:1;stroke:none" transform="translate(121.05234,121.38818)"><flowRegion id="flowRegion971"><rect id="rect973" width="373.57144" height="181.42857" x="249.28572" y="630.71198"/></flowRegion><flowPara id="flowPara975"/></flowRoot>    <flowRoot xml:space="preserve" id="flowRoot1466" style="font-style:normal;font-variant:normal;font-weight:normal;font-stretch:normal;font-size:42.66666794px;line-height:1.25;font-family:Calibri;-inkscape-font-specification:Calibri;font-variant-ligatures:normal;font-variant-caps:normal;font-variant-numeric:normal;font-feature-settings:normal;text-align:start;letter-spacing:0px;word-spacing:0px;writing-mode:lr-tb;text-anchor:start;fill:#ffffff;fill-opacity:1;stroke:none" transform="translate(121.05234,121.38818)"><flowRegion id="flowRegion1468" style="font-style:normal;font-variant:normal;font-weight:normal;font-stretch:normal;font-family:Calibri;-inkscape-font-specification:Calibri;fill:#ffffff;fill-opacity:1"><rect id="rect1470" width="414.1825" height="372.47485" x="1288.5094" y="1923.5425" style="font-style:normal;font-variant:normal;font-weight:normal;font-stretch:normal;font-family:Calibri;-inkscape-font-specification:Calibri;fill:#ffffff;fill-opacity:1"/></flowRegion><flowPara id="flowPara1472"/></flowRoot>    <flowRoot xml:space="preserve" id="flowRoot1529" style="font-style:normal;font-variant:normal;font-weight:normal;font-stretch:normal;font-size:266.66665649px;line-height:1.25;font-family:'Proxy 1';-inkscape-font-specification:'Proxy 1, ';font-variant-ligatures:normal;font-variant-caps:normal;font-variant-numeric:normal;font-feature-settings:normal;text-align:start;letter-spacing:0px;word-spacing:0px;writing-mode:lr-tb;text-anchor:start;fill:#000000;fill-opacity:1;stroke:none" transform="translate(121.05234,121.38818)"><flowRegion id="flowRegion1531" style="font-size:266.66665649px"><rect id="rect1533" width="2157.6858" height="2311.229" x="-2691.0464" y="-332.2605" style="font-size:266.66665649px"/></flowRegion><flowPara id="flowPara1535"/></flowRoot>    <rect ry="0" y="416.38446" x="-233.86169" height="80.684937" width="320.70575" id="rect87" style="opacity:1;fill:#000000;fill-opacity:1;stroke:#000000;stroke-width:0;stroke-miterlimit:4;stroke-dasharray:none;stroke-opacity:1" transform="rotate(-90.032785)"/>
    <path style="fill:#ffffff;stroke-width:0.16109252" d="m 44.759721,169.12079 c -0.0546,-2.78567 -0.0891,-3.09025 -0.40844,-3.60967 -0.19183,-0.31199 -0.58792,-0.71306 -0.88019,-0.8913 -0.50236,-0.30621 -0.86129,-0.3263 -6.5673,-0.36824 l -6.0359,-0.0445 0.0305,-5.95132 0.0305,-5.95132 7.52247,-0.004 c 8.29381,-0.005 9.0749,0.0598 11.2535,0.92406 2.85425,1.13246 4.17943,2.7868 4.96679,6.20045 0.21132,0.91618 0.25741,1.96286 0.23921,5.43157 -0.0123,2.36321 -0.0811,4.95335 -0.1527,5.75599 l -0.13014,1.45937 -4.90432,0.0458 -4.90428,0.0458 -0.0596,-3.04236 z m 16.81227,-56.67954 c -0.0157,-50.783204 0.037,-63.275636 0.25799,-61.167062 l 0.034,0.324281 0.13738,-0.324379 c 0.11495,-0.271476 0.14377,-0.231792 0.17657,0.243099 0.0259,0.375685 0.0744,0.211147 0.14339,-0.486482 l 0.10421,-1.05397 0.0468,1.053883 c 0.0256,0.579576 0.0796,0.926145 0.11983,0.770022 0.0622,-0.241736 0.27134,-0.283845 1.41112,-0.284497 1.33686,-7.65e-4 1.33814,-0.0013 1.4045,-0.446704 0.0467,-0.313127 0.0737,-0.240652 0.0908,0.243148 0.0134,0.378982 0.0964,0.689035 0.18442,0.688984 0.10642,-6e-5 0.17158,20.132216 0.19444,60.072417 l 0.0344,60.0725 -2.16072,0.001 -2.16071,0.001 z m -46.24489,45.79028 -0.003,-5.9992 4.8816,-0.003 4.88162,-0.003 0.003,5.9992 0.003,5.9991 -4.88162,0.003 -4.88159,0.003 z m 17.99902,-12.1087 c -2.74591,-0.42513 -5.18672,-1.18284 -7.36374,-2.28599 -0.7925,-0.40165 -1.47694,-0.77815 -1.52098,-0.83673 -0.0441,-0.059 -0.47562,-0.35933 -0.95903,-0.66825 -0.97638,-0.62394 -2.73324,-2.04734 -2.93195,-2.37552 -0.0705,-0.11646 -0.19367,-0.21159 -0.2738,-0.21155 -0.21222,1.2e-4 -1.56504,-1.4993 -2.40975,-2.67102 -0.89017,-1.2346 -1.38997,-2.24 -2.21748,-4.46043 -0.9657,-2.59125 -1.1955,-4.11112 -1.09078,-7.21458 0.0759,-2.25054 0.15082,-2.80918 0.56521,-4.21592 0.26272,-0.89196 0.62683,-1.97436 0.80913,-2.40547 0.18229,-0.4311 0.33139,-0.86079 0.33134,-0.95489 -5e-5,-0.094 0.34169,-0.76109 0.75941,-1.48243 1.66487,-2.87465 6.11096,-6.79541 9.42153,-8.30819 5.18602,-2.36998 10.39572,-2.67105 15.20893,-0.87921 2.02446,0.75365 3.17653,1.29789 4.60522,2.17527 1.65055,1.01375 1.74671,1.0957 4.17511,3.5588 2.78475,2.82452 3.96617,4.85154 4.97562,8.53676 0.51447,1.87821 0.7106,5.5695 0.40171,7.56037 -0.40165,2.58884 -1.85364,6.03657 -3.43884,8.16558 -0.81882,1.09967 -2.10838,2.5782 -2.24881,2.57828 -0.0426,3e-5 -0.45495,0.37116 -0.91654,0.82473 -2.19614,2.15796 -6.49461,4.38192 -10.03981,5.19434 -1.32273,0.30316 -4.84705,0.52998 -5.8417,0.37605 z m 5.05458,-11.4763 c 2.2632,-0.58329 4.19708,-1.7373 5.90125,-3.52148 1.72353,-1.80448 2.3646,-4.67535 1.59567,-7.14581 -0.84695,-2.72112 -4.02802,-5.413 -7.4461,-6.30094 -1.95927,-0.50908 -4.81775,-0.47034 -6.7162,0.0908 -2.69601,0.79703 -4.80324,2.21715 -6.21481,4.18845 -0.64654,0.90288 -0.83164,1.31897 -1.01022,2.27057 -0.38261,2.03874 -0.17246,4.12382 0.56245,5.5811 0.64596,1.28083 2.4723,2.90578 4.31362,3.83793 2.78004,1.4073 6.03222,1.76783 9.01434,0.99934 z M 15.364231,100.9471 c -0.0408,-0.10748 -0.0567,-2.813484 -0.0353,-6.013296 l 0.0388,-5.817823 5.36175,-0.02107 c 5.06541,-0.0199 5.41358,-0.0411 6.29918,-0.370905 2.27676,-0.848523 3.52312,-3.599327 2.72349,-6.010969 -0.41089,-1.239275 -1.13158,-2.075353 -2.30562,-2.674792 l -1.04064,-0.531184 -5.56188,-0.04482 -5.56185,-0.04482 -0.003,-6.004399 -0.003,-6.004409 6.2821,0.06141 c 5.84612,0.05765 6.37099,0.08635 7.56274,0.414873 2.42383,0.668713 4.54303,1.737801 6.19254,3.123757 0.41211,0.346264 0.81919,0.629631 0.9046,0.629582 0.2087,-1.19e-4 1.56694,1.517014 2.56308,2.862844 0.84412,1.140517 1.69951,2.762928 1.87667,3.559527 0.057,0.256267 0.29516,1.085931 0.52926,1.843797 0.39437,1.276775 0.42575,1.592357 0.4273,4.296457 0.002,2.716399 -0.0297,3.030817 -0.45148,4.540159 -0.6676,2.389182 -1.0013,3.170173 -2.03389,4.759964 -1.17046,1.80207 -2.67291,3.31883 -4.53786,4.580898 -2.63269,1.781706 -4.58764,2.527939 -7.612,2.905669 -1.97351,0.24653 -11.51776,0.21399 -11.61396,-0.0394 z m 29.53028,-16.749026 -0.006,-9.809388 5.04165,-0.0029 5.04167,-0.0029 0.006,9.809388 0.006,9.809399 -5.04167,0.0029 -5.04165,0.0029 z M 7.5926108,67.438016 c -5e-5,-0.089 -0.27839,-0.161931 -0.61854,-0.161736 -0.61442,3.52e-4 -0.61914,-0.0096 -0.72068,-0.751898 -0.0562,-0.413668 -0.11164,-17.030929 -0.12317,-36.927018 l -0.021,-36.1749901 2.16101,0.0478 2.1610002,0.0478 0.0211,36.7835901 c 0.0116,20.230899 -0.0227,36.898912 -0.076,37.039952 -0.0777,0.205735 -0.36304,0.256698 -1.4403202,0.257314 -0.78885,4.52e-4 -1.34337,-0.06623 -1.34342,-0.161331 z M 31.751111,50.886 l -0.007,-12.484706 4.96164,-0.003 4.96165,-0.003 0.007,12.484706 0.007,12.484698 -4.96165,0.0028 -4.96164,0.0028 z m -16.49823,-22.365766 -0.003,-5.99909 4.8816,-0.003 4.88162,-0.003 0.003,5.99909 0.003,5.9992 -4.88162,0.003 -4.8816,0.003 z m 14.8849,-0.009 -0.003,-5.99909 12.64417,-0.007 12.64416,-0.007 0.003,5.99909 0.003,5.9992 -12.64416,0.007 -12.64418,0.007 z m -14.89858,-23.9068701 -0.007,-12.56581 4.88159,-0.003 4.88162,-0.003 0.007,12.56581 0.007,12.5657001 -4.88161,0.003 -4.8816,0.003 z m 15.62329,10.4688501 c -0.0478,-0.078 -0.0861,-2.73565 -0.0851,-5.9056501 l 0.002,-5.7635 5.7941,-0.0563 c 8.1261,-0.0786 7.6828,0.25531 7.76618,-5.85374 l 0.0526,-3.85083 5.08601,-0.003 5.08599,-0.003 0.18181,1.42959 c 0.27448,2.15825 0.23757,9.02317 -0.0585,10.87934 -0.50902,3.1912 -1.49133,5.2632501 -3.15243,6.6496101 -1.72397,1.43878 -3.48139,2.12268 -6.27987,2.44399 -1.76261,0.2024 -14.27161,0.23137 -14.39257,0.0332 z m -20.40659,-30.08462 c -1.0624302,-0.302 -2.0820502,-0.89871 -2.6627302,-1.55817 -2.3917,-2.71604 -2.64628,-5.9914 -0.67471,-8.68013 0.92498,-1.26142 1.28427,-1.57533 2.42104,-2.11528 0.8624402,-0.40969 1.1297002,-0.45565 2.6401302,-0.45391 1.51015,-8.7e-4 1.78269,0.049 2.68779,0.46956 1.95912,0.90948 3.50077,3.2051 3.66612,5.4591 0.15406,2.10033 -0.46277,3.70377 -2.0621,5.36058 -1.42685,1.47822 -3.93232,2.11055 -6.01554,1.51825 z m 4.13118,-1.18337 c 1.29108,-0.54804 2.55936,-2.24536 2.9842,-3.99371 0.42522,-1.74994 0.0671,-3.07783 -1.36703,-5.06991 -0.34355,-0.47721 -0.8084,-0.83434 -1.57552,-1.2105 -0.96819,-0.47465 -1.23996,-0.53389 -2.46476,-0.53739 -1.26208,7.2e-4 -1.4679,0.0438 -2.4743302,0.56411 -0.88954,0.46041 -1.22677,0.75271 -1.77798,1.54132 -0.37413,0.53532 -0.80325,1.33816 -0.95363,1.78415 -0.92286,2.73703 0.56705,6.02527 3.2277102,7.12355 1.01048,0.41712 3.17771,0.31788 4.40134,-0.20162 z m -6.2447002,-4.43952 c -6.5e-4,-1.2204 0.069,-2.40604 0.15466,-2.63479 0.36738,-0.98061 2.2308002,-1.42448 3.0944002,-0.73717 0.22732,0.18097 0.50253,0.57851 0.61159,0.88345 l 0.19828,0.55448 0.60778,-0.55685 c 0.33428,-0.30629 1.00503,-0.78427 1.49058,-1.06225 0.48554,-0.27798 0.92302,-0.57143 0.97219,-0.65216 0.21206,-0.34802 0.39001,-0.0962 0.38264,0.54229 l -0.009,0.6891 -1.52492,0.97367 c -1.63023,1.04094 -1.81815,1.29364 -1.81749,2.44364 l 4.1e-4,0.7191 1.6907,-9.6e-4 1.69069,-9.7e-4 -0.0498,0.48903 -0.0499,0.48913 -3.72131,0.0401 -3.7213102,0.0401 z m 3.2010002,-0.27434 c -7e-4,-1.2086 -0.0537,-1.50537 -0.33279,-1.86441 -0.69225,-0.8904 -1.8069402,-0.38396 -1.9806502,0.89994 -0.0727,0.53764 -0.0335,2.06522 0.0607,2.36266 0.007,0.022 0.51698,0.0407 1.1331902,0.0403 l 1.12037,-6.4e-4 z" id="path31-1" inkscape:connector-curvature="0"/>
    <circle style="opacity:0.98999999;fill:#cccccc;fill-opacity:1;stroke:#ffffff;stroke-width:0;stroke-linejoin:round;stroke-miterlimit:4;stroke-dasharray:none;stroke-opacity:1;paint-order:normal" id="path84" cx="80.813324" cy="-232.18883" transform="matrix(0.99999984,-5.7229343e-4,-5.7229343e-4,-0.99999984,0,0)" r="45"/>
    <circle r="45" transform="matrix(0.99999984,-5.7229343e-4,-5.7229343e-4,-0.99999984,0,0)" cy="87.811142" cx="80.813324" id="circle86" style="opacity:0.98999999;fill:#cccccc;fill-opacity:1;stroke:#ffffff;stroke-width:0;stroke-linejoin:round;stroke-miterlimit:4;stroke-dasharray:none;stroke-opacity:1;paint-order:normal"/>
    <circle style="opacity:0.98999999;fill:#ffffff;fill-opacity:1;stroke:#ffffff;stroke-width:0;stroke-linejoin:round;stroke-miterlimit:4;stroke-dasharray:none;stroke-opacity:1;paint-order:normal" id="path88" cx="-232.18875" cy="80.813141" r="40" transform="rotate(-90.032785)"/>
    <circle r="40" cy="80.813141" cx="87.811234" id="circle90" style="opacity:0.98999999;fill:#ffffff;fill-opacity:1;stroke:#ffffff;stroke-width:0;stroke-linejoin:round;stroke-miterlimit:4;stroke-dasharray:none;stroke-opacity:1;paint-order:normal" transform="rotate(-90.032785)"/>
    <rect transform="rotate(-90.032785)" ry="14.842078" style="opacity:1;fill:#1a1a1a;fill-opacity:1;stroke:#000000;stroke-width:0;stroke-miterlimit:4;stroke-dasharray:none;stroke-opacity:1" id="rect64" width="76.666504" height="70.899185" x="5.8656974" y="687.76251"/>
    <rect transform="matrix(-6.2337084e-4,-0.99999981,0.99999986,-5.2524095e-4,0,0)" y="726.35486" x="39.89492" height="149.99509" width="7.921217" id="rect66" style="opacity:0.98999999;fill:#808080;fill-opacity:1;stroke:#ffffff;stroke-width:0;stroke-linejoin:round;stroke-miterlimit:4;stroke-dasharray:none;stroke-opacity:1;paint-order:normal"/>
    <rect style="opacity:0.98999999;fill:#cccccc;fill-opacity:1;stroke:#ffffff;stroke-width:0;stroke-linejoin:round;stroke-miterlimit:4;stroke-dasharray:none;stroke-opacity:1;paint-order:normal" id="rect178" width="70" height="34" x="509.68417" y="113.18893" rx="10" ry="17"/>
    <rect y="55.688931" x="509.68417" height="34" width="70" id="rect180" style="opacity:0.98999999;fill:#cccccc;fill-opacity:1;stroke:#ffffff;stroke-width:0;stroke-linejoin:round;stroke-miterlimit:4;stroke-dasharray:none;stroke-opacity:1;paint-order:normal" ry="17" rx="10"/>
    <rect style="opacity:0.98999999;fill:#cccccc;fill-opacity:1;stroke:#ffffff;stroke-width:0;stroke-linejoin:round;stroke-miterlimit:4;stroke-dasharray:none;stroke-opacity:1;paint-order:normal" id="rect182" width="70" height="34" x="509.68417" y="-1.8110704" ry="17" rx="10"/>
    <rect y="-1.8110704" x="189.68417" height="34" width="70" id="rect184" style="opacity:0.98999999;fill:#cccccc;fill-opacity:1;stroke:#ffffff;stroke-width:0;stroke-linejoin:round;stroke-miterlimit:4;stroke-dasharray:none;stroke-opacity:1;paint-order:normal" ry="17" rx="10"/>
    <rect style="opacity:0.98999999;fill:#cccccc;fill-opacity:1;stroke:#ffffff;stroke-width:0;stroke-linejoin:round;stroke-miterlimit:4;stroke-dasharray:none;stroke-opacity:1;paint-order:normal" id="rect186" width="70" height="34" x="189.68417" y="55.688931" rx="10" ry="17"/>
    <rect y="113.18893" x="189.68417" height="34" width="70" id="rect188" style="opacity:0.98999999;fill:#cccccc;fill-opacity:1;stroke:#ffffff;stroke-width:0;stroke-linejoin:round;stroke-miterlimit:4;stroke-dasharray:none;stroke-opacity:1;paint-order:normal" ry="17" rx="10"/>
    <rect style="opacity:0.98999999;fill:#ffffff;fill-opacity:1;stroke:#ffffff;stroke-width:0;stroke-linejoin:round;stroke-miterlimit:4;stroke-dasharray:none;stroke-opacity:1;paint-order:normal" id="rect68" width="270" height="270" x="249.68413" y="-62.811211"/>
    <rect style="opacity:0.98999999;fill:#000000;fill-opacity:1;stroke:#ffffff;stroke-width:0;stroke-linejoin:round;stroke-miterlimit:4;stroke-dasharray:none;stroke-opacity:1;paint-order:normal" id="rect70" width="261" height="261" x="253.68413" y="-57.811211"/>
    <rect style="opacity:0.98999999;fill:#ffffff;fill-opacity:1;stroke:#ffffff;stroke-width:0;stroke-linejoin:round;stroke-miterlimit:4;stroke-dasharray:none;stroke-opacity:1;paint-order:normal" id="rect72" width="259" height="259" x="254.2133" y="-56.811211"/>
    <circle style="opacity:0.98999999;fill:#d7eef4;fill-opacity:1;stroke:#ffffff;stroke-width:0;stroke-linejoin:round;stroke-miterlimit:4;stroke-dasharray:none;stroke-opacity:1;paint-order:normal" id="path74" cx="383.21335" cy="73.188789" r="114"/>
    <rect style="opacity:0.98999999;fill:#ffffff;fill-opacity:1;stroke:#ffffff;stroke-width:0;stroke-linejoin:round;stroke-miterlimit:4;stroke-dasharray:none;stroke-opacity:1;paint-order:normal" id="rect82" width="71.126602" height="5.9999986" x="279.24811" y="19.508308"/>
    <rect y="-352.37476" x="-38.673134" height="5.999999" width="64.181435" id="rect84" style="opacity:0.98999999;fill:#ffffff;fill-opacity:1;stroke:#ffffff;stroke-width:0;stroke-linejoin:round;stroke-miterlimit:4;stroke-dasharray:none;stroke-opacity:1;paint-order:normal" transform="rotate(90)"/>
    <rect style="opacity:0.98999999;fill:#ffffff;fill-opacity:1;stroke:#ffffff;stroke-width:0;stroke-linejoin:round;stroke-miterlimit:4;stroke-dasharray:none;stroke-opacity:1;paint-order:normal" id="rect86" width="61.504898" height="5.9999986" x="346.22015" y="5.9902105"/>
    <rect y="407.72504" x="-39.828194" height="5.9999986" width="33.837978" id="rect88" style="opacity:0.98999999;fill:#ffffff;fill-opacity:1;stroke:#ffffff;stroke-width:0;stroke-linejoin:round;stroke-miterlimit:4;stroke-dasharray:none;stroke-opacity:1;paint-order:normal" transform="rotate(-90)"/>
    <rect style="opacity:0.98999999;fill:#ffffff;fill-opacity:1;stroke:#ffffff;stroke-width:0;stroke-linejoin:round;stroke-miterlimit:4;stroke-dasharray:none;stroke-opacity:1;paint-order:normal" id="rect90" width="49.745037" height="5.9999986" x="407.72504" y="33.828194"/>
    <rect y="-459.47006" x="-17.093483" height="5.9999986" width="56.921673" id="rect92" style="opacity:0.98999999;fill:#ffffff;fill-opacity:1;stroke:#ffffff;stroke-width:0;stroke-linejoin:round;stroke-miterlimit:4;stroke-dasharray:none;stroke-opacity:1;paint-order:normal" transform="rotate(90)"/>
    <rect style="opacity:0.98999999;fill:#ffffff;fill-opacity:1;stroke:#ffffff;stroke-width:0;stroke-linejoin:round;stroke-miterlimit:4;stroke-dasharray:none;stroke-opacity:1;paint-order:normal" id="rect94" width="38.786983" height="9.0781174" x="-492.25705" y="-39.828194" transform="scale(-1)"/>
    <rect y="-124.66912" x="273.48328" height="5.9999986" width="76.891449" id="rect96" style="opacity:0.98999999;fill:#ffffff;fill-opacity:1;stroke:#ffffff;stroke-width:0;stroke-linejoin:round;stroke-miterlimit:4;stroke-dasharray:none;stroke-opacity:1;paint-order:normal" transform="scale(1,-1)"/>
    <rect transform="matrix(0,-1,-1,0,0,-1.0416673e-7)" style="opacity:0.98999999;fill:#ffffff;fill-opacity:1;stroke:#ffffff;stroke-width:0;stroke-linejoin:round;stroke-miterlimit:4;stroke-dasharray:none;stroke-opacity:1;paint-order:normal" id="rect98" width="65.828529" height="5.9999986" x="-184.23221" y="-352.37476"/>
    <rect y="-138.18712" x="346.22015" height="5.9999986" width="61.504898" id="rect100" style="opacity:0.98999999;fill:#ffffff;fill-opacity:1;stroke:#ffffff;stroke-width:0;stroke-linejoin:round;stroke-miterlimit:4;stroke-dasharray:none;stroke-opacity:1;paint-order:normal" transform="scale(1,-1)"/>
    <rect transform="matrix(0,1,1,0,0,-1.0416673e-7)" style="opacity:0.98999999;fill:#ffffff;fill-opacity:1;stroke:#ffffff;stroke-width:0;stroke-linejoin:round;stroke-miterlimit:4;stroke-dasharray:none;stroke-opacity:1;paint-order:normal" id="rect102" width="31.83798" height="5.9999986" x="106.34928" y="407.72504"/>
    <rect y="-110.34927" x="407.72504" height="5.9999986" width="49.745037" id="rect104" style="opacity:0.98999999;fill:#ffffff;fill-opacity:1;stroke:#ffffff;stroke-width:0;stroke-linejoin:round;stroke-miterlimit:4;stroke-dasharray:none;stroke-opacity:1;paint-order:normal" transform="scale(1,-1)"/>
    <rect transform="matrix(0,-1,-1,0,0,-1.0416673e-7)" style="opacity:0.98999999;fill:#ffffff;fill-opacity:1;stroke:#ffffff;stroke-width:0;stroke-linejoin:round;stroke-miterlimit:4;stroke-dasharray:none;stroke-opacity:1;paint-order:normal" id="rect106" width="57.951107" height="5.9999986" x="-164.2999" y="-459.47006"/>
    <rect y="103.95561" x="-492.69781" height="9.0781174" width="38.786983" id="rect108" style="opacity:0.98999999;fill:#ffffff;fill-opacity:1;stroke:#ffffff;stroke-width:0;stroke-linejoin:round;stroke-miterlimit:4;stroke-dasharray:none;stroke-opacity:1;paint-order:normal" transform="scale(-1,1)"/>
    <rect y="-303.34222" x="23.715012" height="5.9999986" width="50.71875" id="rect110" style="opacity:0.98999999;fill:#ffffff;fill-opacity:1;stroke:#ffffff;stroke-width:0;stroke-linejoin:round;stroke-miterlimit:4;stroke-dasharray:none;stroke-opacity:1;paint-order:normal" transform="rotate(90)"/>
    <rect transform="rotate(90)" style="opacity:0.98999999;fill:#ffffff;fill-opacity:1;stroke:#ffffff;stroke-width:0;stroke-linejoin:round;stroke-miterlimit:4;stroke-dasharray:none;stroke-opacity:1;paint-order:normal" id="rect112" width="47.505951" height="5.9999986" x="74.433762" y="-303.34222"/>
    <path style="opacity:0.98999999;fill:#ffffff;fill-opacity:1;stroke:#ffffff;stroke-width:0;stroke-linejoin:round;stroke-miterlimit:4;stroke-dasharray:none;stroke-opacity:1;paint-order:normal" id="path114" d="m 277.2906,116.35139 c 0.24371,0.51509 0.52192,1.01166 0.81926,1.49741 0.21749,0.37438 0.40042,0.76806 0.5207,1.18422 0.0518,0.32615 0.1144,0.63701 0.25892,0.93456 0.15793,0.22323 0.31414,0.45125 0.43524,0.69697 0.14883,0.25805 0.30213,0.51175 0.46119,0.76335 0.15809,0.32176 0.27835,0.66153 0.41342,0.9938 0.14467,0.29681 0.35332,0.54739 0.48167,0.85235 0.12174,0.26223 0.25376,0.52041 0.36335,0.78807 0.0765,0.31877 0.26683,0.5852 0.38412,0.88833 0.13092,0.33632 0.25109,0.67466 0.45657,0.97341 0.12576,0.20081 0.25016,0.40198 0.37325,0.6046 0,0 -2.43002,1.40925 -2.43002,1.40925 v 0 c -0.11916,-0.19884 -0.23812,-0.39744 -0.36221,-0.59302 -0.21566,-0.31869 -0.35163,-0.67355 -0.49295,-1.02994 -0.11006,-0.30377 -0.31154,-0.5634 -0.38372,-0.88138 -0.1053,-0.26884 -0.24207,-0.52472 -0.36134,-0.78748 -0.12007,-0.30718 -0.3447,-0.55282 -0.47649,-0.85561 -0.12853,-0.31689 -0.25318,-0.63635 -0.39354,-0.94752 -0.16465,-0.26025 -0.32496,-0.52213 -0.47892,-0.78899 -0.11877,-0.24717 -0.28565,-0.46842 -0.43514,-0.69755 -0.15229,-0.31393 -0.24352,-0.63473 -0.27712,-0.98369 -0.10189,-0.39548 -0.27689,-0.76486 -0.47506,-1.12099 -0.29366,-0.49056 -0.55507,-0.99817 -0.83201,-1.49815 0,0 2.43083,-1.402 2.43083,-1.402 z" inkscape:connector-curvature="0"/>
    <path style="opacity:0.98999999;fill:#ffffff;fill-opacity:1;stroke:#ffffff;stroke-width:0;stroke-linejoin:round;stroke-miterlimit:4;stroke-dasharray:none;stroke-opacity:1;paint-order:normal" id="path116" d="m 343.07827,180.141 c 0.43656,0.32179 0.86278,0.66662 1.33704,0.932 0.40961,0.26503 0.86149,0.40243 1.31972,0.54911 0.41156,0.13457 0.84029,0.18402 1.27034,0.20783 0.41598,-0.0421 0.77931,0.12645 1.16557,0.24556 0.47213,0.15457 0.92946,0.34888 1.37827,0.5615 0.0765,0.0329 0.15356,0.0646 0.2295,0.0988 0.0696,0.0313 0.23458,0.10273 0.3008,0.16351 0.84233,0.77303 -1.63316,1.90169 -2.60794,1.57758 -0.39251,-0.16232 -0.75795,-0.37251 -1.12334,-0.58611 -0.34674,-0.13938 -0.69033,-0.28411 -1.0047,-0.48908 -0.32774,-0.18142 -0.62865,-0.39595 -0.92927,-0.61735 -0.25099,-0.19037 -0.54409,-0.30848 -0.80495,-0.48236 -0.83309,-0.89863 2.12702,-1.56028 2.38543,-1.69712 0.0241,-0.0127 0.36447,0.15303 0.40929,0.1683 0.28535,0.14978 0.55197,0.32679 0.8246,0.49702 0.27522,0.10948 0.48241,0.32896 0.74663,0.45606 0.24074,0.1751 0.5198,0.29835 0.80362,0.38629 0.29413,0.15883 0.61838,0.24329 0.93514,0.3442 0.2613,0.18852 0.71874,0.13306 0.90093,0.39161 0.0212,-0.0257 0.0332,-0.0633 0.0635,-0.077 0.0122,-0.006 0.36523,0.0132 0.44519,0.0101 0.0721,0.003 0.14425,0.007 0.21643,0.006 0.0287,-1.6e-4 0.067,-0.0297 0.0857,-0.008 0.0876,0.1016 0.215,0.28078 0.0763,0.37071 0,0 -2.58779,1.13223 -2.58779,1.13223 v 0 c 0.008,-0.0257 0.004,-0.059 0.0243,-0.0769 0.0159,-0.014 0.38881,0.22783 0.13748,0.2268 -0.082,0 -0.16391,0.004 -0.24588,0.006 -0.23317,-0.0249 -0.4628,0 -0.65696,-0.16026 0.0109,0.0143 0.0498,0.038 0.0325,0.0428 -0.0726,0.0204 -0.68943,-0.25665 -0.81299,-0.28681 -0.31771,-0.10552 -0.63749,-0.20191 -0.93954,-0.34888 -0.29143,-0.11306 -0.57486,-0.24567 -0.83362,-0.42267 -0.25294,-0.15502 -0.48683,-0.34065 -0.75417,-0.47297 -0.2523,-0.16516 -0.51136,-0.32422 -0.79025,-0.44072 -0.0367,-0.013 -0.21352,-0.0781 -0.25998,-0.0862 -0.0318,-0.006 -0.12346,0.0172 -0.0968,0 1.79697,-1.2165 2.0951,-1.65807 2.25816,-1.48135 0.27107,0.16595 0.55701,0.30678 0.80936,0.50348 0.29099,0.22095 0.60204,0.4078 0.91491,0.59634 0.32358,0.18584 0.67236,0.31266 1.00176,0.48588 0.33915,0.20497 0.69057,0.40143 1.07474,0.50782 1.04846,0.0689 0.19899,-0.0185 -2.06417,1.55347 -0.0303,0.0209 -0.06,-0.0431 -0.0925,-0.0605 -0.0555,-0.0296 -0.11245,-0.0566 -0.16946,-0.0832 -0.0764,-0.0357 -0.15381,-0.0692 -0.23072,-0.10377 -0.44622,-0.19984 -0.89765,-0.38777 -1.36713,-0.52676 -0.37142,-0.1207 -0.73353,-0.20555 -1.12834,-0.19256 -0.4423,-0.0423 -0.87913,-0.12057 -1.30085,-0.26461 -0.47776,-0.14719 -0.92909,-0.34168 -1.35755,-0.60238 -0.4716,-0.29808 -0.91046,-0.64574 -1.36829,-0.96427 0,0 2.38003,-1.48831 2.38003,-1.48831 z" inkscape:connector-curvature="0"/>
    <path style="opacity:0.98999999;fill:#ffffff;fill-opacity:1;stroke:#ffffff;stroke-width:0;stroke-linejoin:round;stroke-miterlimit:4;stroke-dasharray:none;stroke-opacity:1;paint-order:normal" id="path118" d="m 461.79199,159.00418 c -0.42169,0.29464 -0.77607,0.66736 -1.16863,0.99684 -0.24678,0.22543 -0.5402,0.38844 -0.81661,0.57338 -0.90779,0.74909 -2.05084,1.25384 -3.03181,1.83023 -0.75772,0.44522 1.5244,-0.87495 2.28661,-1.31241 -0.84254,0.48786 -1.68056,0.98364 -2.52762,1.46365 -0.0432,0.0243 -0.0966,0.0259 -0.14086,0.0485 -0.0412,0.0209 -0.15304,0.10332 -0.1129,0.0804 0.76747,-0.43797 1.5258,-0.89194 2.29552,-1.32594 0.006,-0.003 -0.0424,0.0382 -0.21502,0.18688 -0.95528,0.69929 -2.1327,1.25378 -3.09206,1.83123 -0.73096,0.43998 1.47749,-0.8536 2.21943,-1.27476 0.0568,-0.0323 -0.10916,0.0719 -0.16375,0.10782 -1.0074,0.73586 -2.10613,1.27801 -3.20246,1.90346 6.03692,-3.46808 -0.15722,0.10091 -0.23852,0.14677 -0.0428,0.0241 -0.0958,0.0249 -0.1397,0.0471 -0.13341,0.0672 -0.2304,0.13948 -0.37677,0.1879 -0.24043,0.0741 -0.45926,0.17809 -0.71101,0.22665 0,0 2.23099,-1.70924 2.23099,-1.70924 v 0 c 0.23265,-0.0774 0.45662,-0.17743 0.6872,-0.26014 2.808,-1.47812 -7.39211,4.20497 0.74528,-0.39309 -4.26625,2.47505 -2.43986,1.52128 -1.60851,0.8663 1.56689,-0.9562 5.17861,-2.99757 0.53441,-0.33237 -0.2031,0.11655 0.21312,-0.14364 0.35568,-0.21677 0.0508,-0.0262 0.10403,-0.0472 0.15605,-0.0708 0.98229,-0.89371 5.91431,-3.41889 0.68273,-0.49617 0.8428,-0.48802 1.67553,-0.99388 2.52841,-1.46402 0.76795,-0.42333 -1.51535,0.88281 -2.27346,1.32347 -0.0423,0.0246 0.0863,-0.0467 0.1261,-0.0753 0.12727,-0.0915 0.2521,-0.1764 0.38116,-0.26662 0.23662,-0.24424 0.55422,-0.37253 0.82606,-0.57121 0.4826,-0.43992 -0.19085,0.1641 0.34784,-0.28461 0.27787,-0.23146 0.49157,-0.53676 0.81323,-0.71652 0,0 2.60299,-1.05066 2.60299,-1.05066 z" inkscape:connector-curvature="0"/>
    <path style="opacity:0.98999999;fill:#ffffff;fill-opacity:1;stroke:#ffffff;stroke-width:0;stroke-linejoin:round;stroke-miterlimit:4;stroke-dasharray:none;stroke-opacity:1;paint-order:normal" id="path120" d="m 454.69362,162.97925 c -4.14364,2.56276 -1.92564,1.12001 -1.04508,0.39108 0.92731,-0.80478 2.01216,-1.29328 3.10367,-1.91325 0.25837,-0.10062 0.1375,-0.0418 0.36415,-0.1733 0.16025,-0.0683 0.31072,-0.13309 0.46233,-0.21656 0.0446,-0.0246 0.18198,-0.0915 0.13787,-0.0659 -2.47591,1.43304 -3.01019,1.79798 -2.17299,1.23267 0.8442,-0.48549 1.69098,-0.96652 2.53264,-1.4564 0.76166,-0.44328 -1.52701,0.88014 -2.29256,1.31665 -0.0401,0.0228 0.0761,-0.0525 0.11615,-0.0757 1.05889,-0.61214 1.84439,-1.26793 2.92439,-1.59768 0.88926,-0.41879 1.99414,-1.09924 -1.94276,1.13688 -0.32409,0.18407 0.30261,-0.18751 0.37161,-0.24079 0.0559,-0.17473 0.23209,0.0172 0.1478,0.06 -0.0625,0.0317 -0.14005,0.003 -0.21003,0 -0.34002,0.008 -0.69056,-0.05 -1.02277,0.0331 -0.2807,0.0743 -0.5243,0.24484 -0.77827,0.38073 0.76448,-0.44045 1.52609,-0.88595 2.29346,-1.32138 0.0397,-0.0225 -0.0702,0.0591 -0.10957,0.0822 -0.83896,0.49353 -1.70069,0.94911 -2.5246,1.46738 -0.74623,0.4694 1.52609,-0.88315 2.29145,-1.32072 0.075,-0.0429 -0.13832,0.10459 -0.19931,0.16581 -0.20172,0.17973 -0.31379,0.43098 -0.47588,0.64352 -0.16804,0.16105 -0.25416,0.37447 -0.37671,0.56319 -0.12414,-1.17959 -3.3509,2.02586 -2.10831,0.89435 0.19505,-0.23067 0.44022,-0.4118 0.68048,-0.59225 0.20667,-0.19883 0.46559,-0.32625 0.68845,-0.50405 4.94861,-2.88158 1.86185,-1.07926 0.23315,-0.14904 -0.0403,0.023 0.0749,-0.055 0.11509,-0.078 0.84511,-0.48424 1.6826,-0.98245 2.54048,-1.44362 0.73874,-0.39711 -2.90994,1.66952 -2.18501,1.2477 0.2131,-0.17243 0.38307,-0.3878 0.57875,-0.57801 0.23194,-0.20087 0.37505,-0.47699 0.57121,-0.70916 0.13444,-0.1269 0.28152,-0.23786 0.41868,-0.36135 0,0 2.61191,-1.04555 2.61191,-1.04555 v 0 c -0.15237,0.10343 -0.28411,0.2309 -0.42489,0.34888 -0.27107,0.16436 -0.38381,0.46088 -0.57505,0.70252 -0.20952,0.18098 -0.38272,0.38383 -0.57544,0.57939 -0.67649,0.87352 -0.21564,0.30871 -2.62049,1.56736 -0.77938,0.40794 1.52318,-0.88056 2.28378,-1.32252 0.0393,-0.0228 -0.0806,0.0422 -0.11991,0.0652 -0.83958,0.49009 -1.68106,0.97697 -2.51664,1.47383 -0.75673,0.44998 1.52009,-0.88878 2.2801,-1.33318 -0.23693,0.15592 -0.44444,0.35089 -0.70045,0.47966 -0.20807,0.21437 -0.47041,0.35685 -0.69107,0.5582 -0.21759,0.3057 0.0602,-0.0648 -0.17518,0.19192 -0.72266,0.78828 -2.25541,2.37379 -2.83813,1.26355 -0.0175,-0.25297 0.13575,-0.53335 0.32501,-0.6972 0.15034,-0.23308 0.33155,-0.44239 0.45411,-0.69419 1.14818,-1.04651 -3.22953,1.91413 2.69861,-1.68304 0.75282,-0.45683 -1.5195,0.89035 -2.28137,1.33188 -0.0389,0.0225 0.075,-0.0499 0.11242,-0.0749 0.8368,-0.4947 1.67357,-0.98941 2.51037,-1.4841 0.25903,-0.14688 0.5392,-0.26644 0.83783,-0.29655 0.35512,-0.0135 0.71192,-0.0103 1.0663,0.0172 0.25593,0.0411 0.65315,0.23923 0.38391,0.53409 -0.15965,0.11115 -0.0832,0.0485 -0.22812,0.18928 -0.91313,0.68844 -1.95472,1.25272 -3.02438,1.67762 -0.88749,0.38092 -2.14476,1.21314 1.90992,-1.1407 0.0394,-0.0228 -0.0807,0.0424 -0.12009,0.0652 -0.8413,0.48758 -1.68212,0.97595 -2.52193,1.46603 -0.7597,0.44331 1.52104,-0.88384 2.28156,-1.32577 -1.05331,0.65712 -2.10918,1.30868 -3.23454,1.82824 -0.86455,0.4109 -2.09335,1.16698 1.84894,-1.10468 0.32261,-0.1859 -0.84339,0.45455 -0.53546,0.3943 -0.21628,0.16495 -0.41101,0.35441 -0.629,0.51681 -0.97486,0.72631 -2.0093,1.33009 -3.10219,1.89741 0,0 2.1816,-1.76501 2.1816,-1.76501 z" inkscape:connector-curvature="0"/>
    <path style="opacity:0.98999999;fill:#ffffff;fill-opacity:1;stroke:#ffffff;stroke-width:0;stroke-linejoin:round;stroke-miterlimit:4;stroke-dasharray:none;stroke-opacity:1;paint-order:normal" id="path122" d="m 499.6885,87.12935 c 0.0358,0.580768 0.1193,1.153652 0.22204,1.725618 0.0812,0.424743 0.11599,0.855477 0.13343,1.286893 0.008,0.430917 0.008,0.861928 0.008,1.292903 0.0143,0.37288 0,0.738521 -0.0716,1.104437 -0.0884,0.356711 -0.21945,0.700878 -0.33396,1.049602 -0.12343,0.379621 -0.27752,0.748093 -0.42246,1.119775 -0.15425,0.31628 -0.24807,0.656002 -0.37005,0.985059 -0.13575,0.334058 -0.29326,0.661276 -0.46667,0.97754 -0.23783,0.305798 -0.40926,0.639067 -0.55446,0.996191 -0.1343,0.39035 -0.24013,0.790853 -0.39505,1.173768 -0.1025,0.292333 -0.2086,0.582721 -0.31729,0.872993 -0.11969,0.250034 -0.26421,0.489061 -0.41497,0.721691 -0.12049,0.24854 -0.27138,0.47669 -0.42389,0.70589 -0.14306,0.27063 -0.35523,0.49532 -0.53673,0.73953 -0.15047,0.25809 -0.26808,0.52997 -0.35901,0.81399 -0.12666,0.30291 -0.27067,0.5926 -0.35227,0.91184 -0.0942,0.30508 -0.16386,0.61922 -0.27088,0.92019 -0.12224,0.30019 -0.15587,0.62103 -0.17762,0.94124 -0.0251,0.45758 -0.009,0.91584 -0.0391,1.37299 -0.0395,0.47303 -0.2377,0.90107 -0.39267,1.34189 -0.11335,0.34117 -0.13375,0.70042 -0.14695,1.0567 -0.0135,0.32224 -0.1061,0.62717 -0.22114,0.92521 -0.13777,0.33498 -0.25731,0.67686 -0.39259,1.01287 -0.13692,0.33089 -0.25289,0.66875 -0.44082,0.97522 -0.17989,0.26347 -0.22524,0.57036 -0.254,0.88037 0.007,0.34491 -0.0575,0.67861 -0.12115,1.01521 -0.067,0.31858 -0.19577,0.61979 -0.30308,0.92604 -0.12761,0.29292 -0.21879,0.59984 -0.33753,0.89596 -0.1,0.93202 -3.18156,2.43406 -2.64099,1.35845 0.13319,-0.2458 0.27257,-0.47136 0.45318,-0.68482 0.19185,-0.22373 0.31718,-0.45294 0.38065,-0.74057 0.0774,-0.3088 0.16203,-0.61203 0.20302,-0.92856 -0.007,-0.36388 0.14816,-0.68199 0.27016,-1.0138 0.11073,-0.323 0.10994,-0.66678 0.18124,-0.99801 0.069,-0.35555 0.17873,-0.7008 0.2486,-1.05592 0.0427,-0.4179 0.12745,-0.82863 0.19818,-1.2422 0.0613,-0.37373 0.0747,-0.75254 0.083,-1.13043 -0.01,-0.36109 0.005,-0.71485 0.0747,-1.06916 0.0529,-0.32165 0.0959,-0.64092 0.17857,-0.95663 0.0284,-0.068 0.0954,-0.56498 0.12178,-0.57876 2.57895,-1.34657 2.21237,-2.11633 2.62181,-1.06618 0.084,0.38278 0.0757,0.77843 0.0774,1.16828 0.0151,0.36036 -0.003,0.71245 -0.14253,1.04779 -0.14007,0.29712 -0.27271,0.59249 -0.34999,0.91248 -0.0453,0.37337 -0.12206,0.74116 -0.18606,1.11157 -0.0487,0.36677 -0.13163,0.73068 -0.25029,1.08117 -0.13224,0.3223 -0.26334,0.64498 -0.42458,0.95405 -0.18338,0.28808 -0.38359,0.56576 -0.59394,0.83468 -0.18193,0.24271 -0.31811,0.51308 -0.47127,0.77325 -0.17145,0.27765 -0.30221,0.57616 -0.45419,0.86439 -0.15115,0.30483 -0.35544,0.57793 -0.51641,0.87691 -0.0782,0.15132 -0.0741,0.28501 -0.0302,0.44236 0,0 -2.46806,1.35281 -2.46806,1.35281 v 0 c -0.0715,-0.21233 -0.1203,-0.40701 -0.0559,-0.63092 0.13039,-0.32393 0.34327,-0.5918 0.50602,-0.89662 0.16996,-0.27964 0.28551,-0.58002 0.45182,-0.86014 0.14333,-0.2767 0.30364,-0.5402 0.46062,-0.80896 0.19336,-0.27699 0.42069,-0.52888 0.59735,-0.81865 0.21735,-0.26365 0.29406,-0.59732 0.45535,-0.89421 0.12382,-0.33605 0.23079,-0.68039 0.27479,-1.03667 0.0556,-0.37553 0.15653,-0.74164 0.1792,-1.12145 0.0581,-0.34184 0.16256,-0.65853 0.31766,-0.96812 0.17651,-0.35055 0.22993,-0.53312 0.20289,-0.9426 0,-0.36082 0.008,-0.7244 -0.0444,-1.08232 -0.20719,-0.98032 -0.0372,-0.0671 2.42052,-1.43905 0.023,-0.0128 -0.05,0.0239 -0.0642,0.0461 -0.0882,0.13831 -0.0528,0.31423 -0.1007,0.46444 -0.0746,0.31522 -0.16777,0.61835 -0.18486,0.94518 -0.0694,0.34241 -0.13557,0.67247 -0.10118,1.02595 -0.006,0.38963 -0.0138,0.78024 -0.0669,1.16689 -0.0634,0.41673 -0.17301,0.82435 -0.19859,1.24631 -0.0556,0.36335 -0.16021,0.70874 -0.23313,1.06775 -0.089,0.33693 -0.10342,0.67737 -0.17293,1.019 -0.0941,0.32716 -0.29938,0.61346 -0.29602,0.96147 -0.0278,0.32168 -0.0702,0.64281 -0.19425,0.94385 -0.0392,0.3075 -0.0886,0.62703 -0.32621,0.84913 -0.13729,0.24439 -0.38245,0.38967 -0.45209,0.67712 -0.69623,0.80563 -0.15137,0.19595 -2.67293,1.35527 -0.023,0.0106 -0.018,-0.053 -0.007,-0.0757 0.0335,-0.0679 0.16209,-0.0642 0.14415,-0.1755 0.0209,-0.0482 0.0302,-0.10067 0.0453,-0.15099 0.11814,-0.29351 0.19997,-0.59801 0.35023,-0.87847 0.0866,-0.30372 0.20725,-0.59561 0.31768,-0.89096 0.0522,-0.33166 0.15928,-0.65148 0.13539,-0.99126 0.0183,-0.34034 0.0397,-0.68869 0.19357,-0.99952 0.18365,-0.3025 0.36827,-0.59521 0.46334,-0.94303 0.15203,-0.32329 0.24453,-0.6673 0.39388,-0.99109 0.091,-0.28484 0.23122,-0.54639 0.26448,-0.84969 0.008,-0.37834 0.0183,-0.76004 0.11285,-1.12871 0.12985,-0.43667 0.36374,-0.83361 0.43137,-1.28949 0.0465,-0.45189 0.0138,-0.90569 0.0304,-1.35934 0.014,-0.3412 0.031,-0.68673 0.13697,-1.01419 0.11055,-0.29323 0.17878,-0.59348 0.29176,-0.88696 0.0606,-0.33795 0.16886,-0.64851 0.32782,-0.95211 0.0704,-0.14303 0.0899,-0.28859 0.14748,-0.43654 0.14427,-0.3707 -0.0217,0.0858 0.13737,-0.26101 0.0236,-0.0514 0.0371,-0.10683 0.0556,-0.16025 0.13785,-0.27288 0.35488,-0.4842 0.54078,-0.72471 0.11329,-0.2587 0.32687,-0.44782 0.41828,-0.71764 0.13338,-0.2398 0.29086,-0.46193 0.42635,-0.69817 0.16012,-0.26041 0.22627,-0.57475 0.32784,-0.86087 0.16129,-0.380054 0.30652,-0.767743 0.40537,-1.169873 0.13388,-0.373464 0.26554,-0.741222 0.5215,-1.050885 0.22193,-0.268309 0.33284,-0.620869 0.49273,-0.926539 0.14549,-0.324242 0.21778,-0.671407 0.36436,-0.994593 0.18169,-0.344363 0.28186,-0.730382 0.43921,-1.086871 0.0973,-0.346456 0.22741,-0.682281 0.34139,-1.023268 0.0723,-0.352867 0.13832,-0.693581 0.1025,-1.057936 0.003,-0.427776 0.005,-0.85565 -0.005,-1.283351 -0.0111,-0.420929 -0.0342,-0.841987 -0.10594,-1.257663 -0.0959,-0.575738 -0.18095,-1.150464 -0.23935,-1.731359 0,0 2.48428,-1.304962 2.48428,-1.304962 z" inkscape:connector-curvature="0"/>
    <path style="opacity:0.98999999;fill:#ffffff;fill-opacity:1;stroke:#ffffff;stroke-width:0;stroke-linejoin:round;stroke-miterlimit:4;stroke-dasharray:none;stroke-opacity:1;paint-order:normal" id="path124" d="m 490.26791,26.624644 c 0.19187,0.55773 0.49003,1.06769 0.70069,1.6173 0.1482,0.40419 0.32171,0.79744 0.49607,1.19071 0.11583,0.34624 0.26334,0.68163 0.35917,1.03439 0.0505,0.3167 0.17706,0.6116 0.31658,0.89785 0.17237,0.29819 0.31123,0.60982 0.45765,0.92095 0.2001,0.28992 0.31758,0.62099 0.43905,0.9486 0.17356,0.36175 0.28321,0.74208 0.3471,1.13682 0.0963,0.30833 0.13809,0.62992 0.21786,0.94162 0.10433,0.31259 0.15063,0.63876 0.23111,0.95747 0.0674,0.3117 0.18802,0.60908 0.32438,0.89625 0.12587,0.27676 0.26064,0.54882 0.37915,0.82964 0.18505,0.34515 0.29319,0.71513 0.35774,1.09925 -0.005,0.32081 0.17606,0.57028 0.28732,0.85645 0.16131,0.27388 0.2418,0.57278 0.29022,0.88401 0.0333,0.17149 0.0693,0.33093 0.19073,0.45964 0,0 -2.4126,1.44788 -2.4126,1.44788 v 0 c -0.13957,-0.18165 -0.21968,-0.37107 -0.26249,-0.59757 -0.0367,-0.29443 -0.10666,-0.5716 -0.26326,-0.82785 -0.11126,-0.30461 -0.32089,-0.57093 -0.30956,-0.91117 -0.0502,-0.36444 -0.14362,-0.71436 -0.32745,-1.0367 -0.11708,-0.277 -0.25477,-0.54349 -0.37598,-0.81781 -0.143,-0.30347 -0.27313,-0.61698 -0.34591,-0.94546 -0.0827,-0.31667 -0.13454,-0.63838 -0.23228,-0.95099 -0.0937,-0.31971 -0.11718,-0.6582 -0.22916,-0.97482 -0.0501,-0.37859 -0.14607,-0.74301 -0.32022,-1.08545 -0.11755,-0.32078 -0.23381,-0.64294 -0.43127,-0.92522 -0.1452,-0.30918 -0.27583,-0.62244 -0.45106,-0.91732 -0.15248,-0.30016 -0.29747,-0.61259 -0.3474,-0.94824 -0.0825,-0.34165 -0.22918,-0.66197 -0.33134,-0.99767 -0.17449,-0.3997 -0.35428,-0.79665 -0.49916,-1.20856 -0.19606,-0.55409 -0.48112,-1.07009 -0.70718,-1.612 0,0 2.4515,-1.362 2.4515,-1.362 z" inkscape:connector-curvature="0"/>
    <path style="opacity:0.98999999;fill:#ffffff;fill-opacity:1;stroke:#ffffff;stroke-width:0;stroke-linejoin:round;stroke-miterlimit:4;stroke-dasharray:none;stroke-opacity:1;paint-order:normal" id="path130" d="m 455.33719,-20.753356 c 0.39669,0.38287 0.80111,0.75673 1.15496,1.18101 0.27787,0.29203 0.5125,0.62157 0.74158,0.9521 0.16888,0.28457 0.23579,0.61097 0.36893,0.91228 0.12883,0.35158 0.288,0.68724 0.46741,1.01575 0.20585,0.35169 0.42119,0.69456 0.70345,0.99024 0.2912,0.29999 0.55811,0.62086 0.83074,0.93739 0.68157,0.74899 0.16663,0.14807 -2.42356,1.43252 -0.0408,0.0203 -0.0387,-0.0826 -0.0585,-0.12364 -0.0696,-0.144 -0.1339,-0.28743 -0.2141,-0.4259 -0.22315,-0.31483 -0.42971,-0.64231 -0.67082,-0.9438 -0.19476,-0.29439 -0.43405,-0.5503 -0.69654,-0.78438 -0.34605,-0.16616 -0.64556,-0.42703 -0.9983,-0.57162 -1.8196,-0.59317 -1.46736,-0.11578 1.35051,-1.86546 0.23916,0.17643 0.49157,0.33676 0.74356,0.49524 0.32406,0.22365 0.68643,0.38489 1.03759,0.56117 0.33832,0.18055 0.66558,0.37782 0.97218,0.60901 0.27358,0.17825 0.56396,0.40647 0.70102,0.71084 0.25757,1.0906 0.11715,0.27245 -2.5812,1.42862 -0.0623,0.0267 -0.57176,-0.37947 -0.64788,-0.43752 -0.29967,-0.21709 -0.52182,-0.50315 -0.74634,-0.79074 -0.18153,-0.26235 -0.40701,-0.49787 -0.63193,-0.72396 -0.16444,-0.17858 -0.28096,-0.3937 -0.41471,-0.59496 0,0 2.41951,-1.41893 2.41951,-1.41893 v 0 c 0.12644,0.18619 0.23712,0.38537 0.39087,0.55091 0.22746,0.24021 0.46982,0.47273 0.65177,0.75032 0.20461,0.27248 0.42151,0.53172 0.70334,0.73043 0.14812,0.11439 0.28729,0.22164 0.45551,0.30557 0.0519,0.0259 0.20609,0.0398 0.15822,0.0726 -2.23806,1.53437 -2.97214,0.77653 -2.22866,1.48968 0.003,-0.17873 -0.46638,-0.47342 -0.59754,-0.57021 -0.30302,-0.21202 -0.61881,-0.40424 -0.94784,-0.57336 -0.3561,-0.18742 -0.72821,-0.34726 -1.05746,-0.58152 -0.24329,-0.16167 -0.49168,-0.31524 -0.74086,-0.46746 2.48433,-1.72495 1.56673,-1.87529 3.3392,-1.22192 0.36378,0.1863 0.72046,0.40101 1.05571,0.63425 0.27075,0.24744 0.51282,0.52364 0.71859,0.82784 0.24233,0.31702 0.46569,0.64803 0.69431,0.97507 0.70941,1.22679 0.21342,0.71393 -2.11343,2.01937 -0.0117,-0.0185 -0.0236,-0.037 -0.0352,-0.0556 -0.24757,-0.33175 -0.53242,-0.62507 -0.81693,-0.9245 -0.28366,-0.32271 -0.51686,-0.67912 -0.73363,-1.04949 -0.185,-0.33303 -0.35439,-0.67224 -0.48443,-1.03057 -0.13332,-0.28503 -0.19775,-0.59216 -0.3429,-0.87015 -0.22265,-0.32436 -0.45072,-0.64619 -0.71702,-0.93687 -0.34375,-0.41171 -0.73247,-0.78218 -1.13916,-1.13134 0,0 2.38,-1.48832 2.38,-1.48832 z" inkscape:connector-curvature="0"/>
    <path style="opacity:0.98999999;fill:#ffffff;fill-opacity:1;stroke:#ffffff;stroke-width:0;stroke-linejoin:round;stroke-miterlimit:4;stroke-dasharray:none;stroke-opacity:1;paint-order:normal" id="path132" d="m 274.19791,26.605034 c 0.11782,-0.54284 0.27705,-1.0752 0.4085,-1.61462 0.0799,-0.36637 0.25979,-0.69706 0.37883,-1.04997 0.10802,-0.34938 0.10424,-0.71688 0.1416,-1.07698 0.0441,-0.3896 0.16746,-0.76179 0.25659,-1.14173 0.0657,-0.35172 0.0829,-0.70598 0.18659,-1.04983 0.1093,-0.31721 0.32308,-0.53182 0.58346,-0.7295 1.17959,-0.87258 2.48742,-1.63712 3.9184,-1.98427 0.49442,-0.12101 0.87722,-0.11213 1.30167,0.16696 0.36147,0.25421 0.64537,0.53648 0.82288,0.94369 0.13777,0.34744 0.11705,0.69533 0.0347,1.05076 -0.0823,0.27996 -0.23278,0.53059 -0.33819,0.80059 -0.08,0.29077 -0.16195,0.58306 -0.28438,0.85923 -0.14726,0.25069 -0.28241,0.48619 -0.34732,0.7724 -0.0616,0.32806 -0.20293,0.63271 -0.32366,0.94183 -0.12562,0.26828 -0.27559,0.52652 -0.43431,0.77666 -0.11975,0.2504 -0.2712,0.47969 -0.4244,0.70997 -0.14702,0.2376 -0.27664,0.48431 -0.416,0.72653 -0.16457,0.2144 -0.32075,0.43196 -0.47794,0.65153 0,0 -2.57543,1.1322 -2.57543,1.1322 v 0 c 0.13758,-0.2387 0.298,-0.45573 0.47075,-0.6674 0.19248,-0.20328 0.25762,-0.47554 0.43227,-0.69123 0.11372,-0.25965 0.32832,-0.44957 0.41984,-0.72067 0.14253,-0.25652 0.3107,-0.49576 0.44858,-0.75359 0.15436,-0.27251 0.23508,-0.5857 0.35525,-0.87472 0.0405,-0.30047 0.0925,-0.60888 0.31515,-0.83318 0.12097,-0.26842 0.24741,-0.53866 0.29887,-0.83113 0.0745,-0.29033 0.22638,-0.5311 0.33383,-0.80775 0.13872,-0.2692 0.15483,-0.58209 0.0644,-0.86965 -0.14134,-0.35408 -0.40614,-0.5857 -0.72641,-0.78614 -0.37563,-0.175 -0.76859,-0.11109 -1.16028,-7.9e-4 -0.32496,0.0963 -0.26533,0.0738 -0.58396,0.18741 -0.0994,0.0355 -0.38656,0.16545 -0.29732,0.10908 3.70351,-2.33888 2.59956,-1.50718 1.77509,-1.06057 -0.142,0.1325 -0.11133,0.1188 -0.275,0.21485 -0.0408,0.0239 -0.09,0.0348 -0.12542,0.066 -0.0924,0.0815 -0.1693,0.22308 -0.22965,0.32794 -0.18651,0.30207 -0.15785,0.66301 -0.21691,1.00273 -0.0747,0.37928 -0.20876,0.74101 -0.2645,1.12396 -0.0696,0.36679 -0.0287,0.74777 -0.12264,1.11268 -0.0932,0.36329 -0.2654,0.68882 -0.39367,1.03982 -0.12319,0.54157 -0.31912,1.06327 -0.39968,1.61468 0,0 -2.53019,1.21206 -2.53019,1.21206 z" inkscape:connector-curvature="0"/>
    <path style="opacity:0.98999999;fill:#ffffff;fill-opacity:1;stroke:#ffffff;stroke-width:0;stroke-linejoin:round;stroke-miterlimit:4;stroke-dasharray:none;stroke-opacity:1;paint-order:normal" id="path136" d="m 338.5753,-35.119026 c 0.91376,0.0151 1.82771,0.0135 2.74158,0.0127 0.70284,0.0553 1.37475,-0.11843 2.05418,-0.25616 0.44952,-0.0633 0.87447,-0.2211 1.30402,-0.35509 0.3533,-0.05 0.61804,-0.29339 0.93758,-0.42262 -0.7625,0.43599 -3.0249,1.78531 -2.28756,1.30797 0.81724,-0.52907 1.68092,-0.98282 2.52762,-1.46337 0.043,-0.0244 0.18208,-0.0753 0.13941,-0.0503 -0.76005,0.4442 -3.04274,1.77172 -2.29362,1.30931 2.18231,-1.34703 1.62832,-1.14883 2.66895,-1.50236 1.0332,-0.70871 -3.15671,1.79391 -2.0356,1.14016 1.17732,-0.68651 1.77729,-1.32399 2.88346,-1.5548 0.3366,-0.16401 0.72033,-0.19625 1.08887,-0.22589 0.25672,-0.0386 0.52247,0.008 0.7789,-0.022 0.10719,-0.0125 0.20953,-0.0518 0.31428,-0.0776 0.32316,-0.0978 0.67153,-0.0443 0.99062,-0.14392 1.4872,-0.36787 0.89162,-0.32794 -1.76297,1.49155 -0.34814,0.0664 -0.69644,0.1087 -0.99433,0.31319 -0.0456,0.0255 -0.0911,0.051 -0.13671,0.0765 0.76105,-0.43723 1.51918,-0.87961 2.2832,-1.3117 0.0418,-0.0237 -0.0771,0.0574 -0.11579,0.0859 -0.11297,0.083 -0.21325,0.17591 -0.32057,0.26602 -0.24008,0.15347 -0.46008,0.33388 -0.68905,0.50317 -0.89638,0.62753 -1.73662,1.05401 -2.79514,1.64854 -0.10827,0.0608 -0.26283,0.0922 -0.38139,0.0704 -0.15137,-0.0943 -0.27636,-0.33167 -0.087,-0.44366 2.44994,-1.44844 1.56697,-1.2689 2.64586,-1.46954 0.24927,-0.18754 0.57367,-0.15758 0.84828,-0.27224 0.19434,-0.0995 0.419,-0.0837 0.62384,-0.13468 0.0969,-0.0241 0.18642,-0.0719 0.28114,-0.10346 0.32632,-0.0603 0.58992,-0.26375 0.89525,-0.37787 0.0502,-0.0261 0.0993,-0.0547 0.15078,-0.0783 0.39603,-0.18128 -0.0519,0.0557 0.30348,-0.16127 0.0469,-0.0286 0.19286,-0.10568 0.14526,-0.0782 -2.35927,1.36264 -2.98225,1.81726 -2.15244,1.22011 0.11753,-0.0735 0.21688,-0.1702 0.32414,-0.2572 0,0 2.59916,-1.07614 2.59916,-1.07614 v 0 c -0.0957,0.11526 -0.20873,0.19188 -0.30699,0.30491 -1.04662,0.69099 -2.12027,1.35812 -3.26692,1.8689 -0.29464,0.14638 -0.59378,0.27654 -0.91498,0.35513 -0.29956,0.0867 -0.61315,0.12156 -0.90541,0.23708 -0.29546,0.0616 -0.57052,0.16222 -0.84788,0.27874 -0.92512,0.4585 0.0879,-0.0404 2.2012,-1.29329 0.0233,-0.0138 -0.0541,0.0104 -0.0779,0.0234 -0.0161,0.009 -0.0251,0.0529 -0.0383,0.0399 -0.156,-0.1557 -0.14999,-0.14892 -0.15476,-0.2643 0.12044,-0.0776 -0.018,0.006 0.16653,-0.0793 0.047,-0.0218 0.18233,-0.0982 0.13767,-0.072 -4.18717,2.45819 -2.73164,1.73201 -2.01227,1.1325 0.25265,-0.13623 0.46096,-0.32832 0.68681,-0.50013 0.18269,-0.0867 0.27559,-0.23515 0.44421,-0.33552 2.41675,-1.43857 1.65833,-1.04914 2.65956,-1.5584 0.35227,-0.12466 0.72544,-0.21151 1.10133,-0.17649 -2.0207,1.60598 -1.38335,1.54743 -2.77701,1.82341 -0.33237,0.0329 -0.66472,0.0651 -0.99031,0.1438 -0.3656,0.0566 -0.73742,0.028 -1.10445,0.0762 -0.3655,0.0487 -0.71715,0.13666 -1.06217,0.26735 -0.10279,0.0388 -0.39616,0.18883 -0.30144,0.13322 4.8814,-2.8652 0.83968,-0.43369 -0.52726,0.31302 -1.19364,0.65152 5.40663,-2.9498 2.16148,-1.25323 -0.8623,0.45082 -1.6888,0.96698 -2.53325,1.45044 -1.9418,1.11175 8.06895,-4.6595 -0.37597,0.20818 -0.30284,0.16908 -0.61489,0.30707 -0.9542,0.38894 -0.42759,0.14518 -0.87127,0.23913 -1.31426,0.32415 -0.6786,0.14444 -1.3626,0.22683 -2.05893,0.18892 -0.92549,-7.9e-4 -1.85111,-0.002 -2.77649,0.0127 0,0 2.26465,-1.64537 2.26465,-1.64537 z" inkscape:connector-curvature="0"/>
    <text xml:space="preserve" style="font-style:normal;font-variant:normal;font-weight:normal;font-stretch:normal;font-size:52.17420197px;line-height:1.25;font-family:Calibri;-inkscape-font-specification:Calibri;font-variant-ligatures:normal;font-variant-caps:normal;font-variant-numeric:normal;font-feature-settings:normal;text-align:start;letter-spacing:0px;word-spacing:0px;writing-mode:lr-tb;text-anchor:start;fill:#000000;fill-opacity:1;stroke:none;stroke-width:1.2228328" x="878.14374" y="-34.498219" id="text109"><tspan id="tspan107" sodipodi:role="line" x="878.14374" y="-34.498219" style="fill:#000000;stroke-width:1.2228328">GND</tspan></text>
    <text id="text121" y="44.117321" x="878.14374" style="font-style:normal;font-variant:normal;font-weight:normal;font-stretch:normal;font-size:52.17420197px;line-height:1.25;font-family:Calibri;-inkscape-font-specification:Calibri;font-variant-ligatures:normal;font-variant-caps:normal;font-variant-numeric:normal;font-feature-settings:normal;text-align:start;letter-spacing:0px;word-spacing:0px;writing-mode:lr-tb;text-anchor:start;fill:#000000;fill-opacity:1;stroke:none;stroke-width:1.2228328" xml:space="preserve"><tspan style="fill:#000000;stroke-width:1.2228328" y="44.117321" x="878.14374" sodipodi:role="line" id="tspan119">Rot</tspan></text>
    <text xml:space="preserve" style="font-style:normal;font-variant:normal;font-weight:normal;font-stretch:normal;font-size:52.17420197px;line-height:1.25;font-family:Calibri;-inkscape-font-specification:Calibri;font-variant-ligatures:normal;font-variant-caps:normal;font-variant-numeric:normal;font-feature-settings:normal;text-align:start;letter-spacing:0px;word-spacing:0px;writing-mode:lr-tb;text-anchor:start;fill:#000000;fill-opacity:1;stroke:none;stroke-width:1.2228328" x="878.14374" y="121.56818" id="text125"><tspan id="tspan123" sodipodi:role="line" x="878.14374" y="121.56818" style="fill:#000000;stroke-width:1.2228328">Grn</tspan></text>
    <text id="text129" y="199.60138" x="878.14374" style="font-style:normal;font-variant:normal;font-weight:normal;font-stretch:normal;font-size:52.17420197px;line-height:1.25;font-family:Calibri;-inkscape-font-specification:Calibri;font-variant-ligatures:normal;font-variant-caps:normal;font-variant-numeric:normal;font-feature-settings:normal;text-align:start;letter-spacing:0px;word-spacing:0px;writing-mode:lr-tb;text-anchor:start;fill:#000000;fill-opacity:1;stroke:none;stroke-width:1.2228328" xml:space="preserve"><tspan style="fill:#000000;stroke-width:1.2228328" y="199.60138" x="878.14374" sodipodi:role="line" id="tspan127">Blau</tspan></text>
    <text xml:space="preserve" style="font-style:normal;font-variant:normal;font-weight:normal;font-stretch:normal;font-size:53.3700943px;line-height:1.25;font-family:Calibri;-inkscape-font-specification:Calibri;font-variant-ligatures:normal;font-variant-caps:normal;font-variant-numeric:normal;font-feature-settings:normal;text-align:start;letter-spacing:0px;word-spacing:0px;writing-mode:lr-tb;text-anchor:start;fill:#ffffff;fill-opacity:1;stroke:none;stroke-width:0.22237539" x="192.42192" y="294.23795" id="text113"><tspan sodipodi:role="line" id="tspan111" x="192.42192" y="294.23795" style="fill:#ffffff;stroke-width:0.22237539">KY-009</tspan></text>
    <text id="text117" y="245.02547" x="310.42609" style="font-style:normal;font-variant:normal;font-weight:normal;font-stretch:normal;font-size:53.3700943px;line-height:1.25;font-family:Calibri;-inkscape-font-specification:Calibri;font-variant-ligatures:normal;font-variant-caps:normal;font-variant-numeric:normal;font-feature-settings:normal;text-align:start;letter-spacing:0px;word-spacing:0px;writing-mode:lr-tb;text-anchor:start;fill:#ffffff;fill-opacity:1;stroke:none;stroke-width:0.22237539" xml:space="preserve"><tspan style="fill:#ffffff;stroke-width:0.22237539" y="245.02547" x="310.42609" id="tspan115" sodipodi:role="line">3_Clor</tspan></text>
    <text xml:space="preserve" style="font-style:normal;font-variant:normal;font-weight:normal;font-stretch:normal;font-size:87.13611603px;line-height:1.25;font-family:Calibri;-inkscape-font-specification:Calibri;font-variant-ligatures:normal;font-variant-caps:normal;font-variant-numeric:normal;font-feature-settings:normal;text-align:start;letter-spacing:0px;word-spacing:0px;writing-mode:lr-tb;text-anchor:start;fill:#ffffff;fill-opacity:1;stroke:none;stroke-width:0.26458332" x="612.5097" y="58.359573" id="text122"><tspan sodipodi:role="line" id="tspan120" x="612.5097" y="58.359573" style="fill:#ffffff;stroke-width:0.26458332">R</tspan></text>
    <text xml:space="preserve" style="font-style:normal;font-variant:normal;font-weight:normal;font-stretch:normal;font-size:87.13611603px;line-height:1.25;font-family:Calibri;-inkscape-font-specification:Calibri;font-variant-ligatures:normal;font-variant-caps:normal;font-variant-numeric:normal;font-feature-settings:normal;text-align:start;letter-spacing:0px;word-spacing:0px;writing-mode:lr-tb;text-anchor:start;fill:#ffffff;fill-opacity:1;stroke:none;stroke-width:0.26458332" x="611.69336" y="141.29965" id="text126"><tspan sodipodi:role="line" id="tspan124" x="611.69336" y="141.29965" style="fill:#ffffff;stroke-width:0.26458332">G</tspan></text>
    <text xml:space="preserve" style="font-style:normal;font-variant:normal;font-weight:normal;font-stretch:normal;font-size:87.13611603px;line-height:1.25;font-family:Calibri;-inkscape-font-specification:Calibri;font-variant-ligatures:normal;font-variant-caps:normal;font-variant-numeric:normal;font-feature-settings:normal;text-align:start;letter-spacing:0px;word-spacing:0px;writing-mode:lr-tb;text-anchor:start;fill:#ffffff;fill-opacity:1;stroke:none;stroke-width:0.26458332" x="610.38947" y="218.1282" id="text130"><tspan sodipodi:role="line" id="tspan128" x="610.38947" y="218.1282" style="fill:#ffffff;stroke-width:0.26458332">B</tspan></text>
    <text xml:space="preserve" style="font-style:normal;font-variant:normal;font-weight:normal;font-stretch:normal;font-size:145.81321716px;line-height:1.25;font-family:Calibri;-inkscape-font-specification:Calibri;font-variant-ligatures:normal;font-variant-caps:normal;font-variant-numeric:normal;font-feature-settings:normal;text-align:start;letter-spacing:0px;word-spacing:0px;writing-mode:lr-tb;text-anchor:start;fill:#ffffff;fill-opacity:1;stroke:none;stroke-width:0.44275263" x="358.37781" y="-34.641178" id="text134" transform="scale(1.6733959,0.59758723)"><tspan sodipodi:role="line" id="tspan132" x="358.37781" y="-34.641178" style="fill:#ffffff;stroke-width:0.44275263">-</tspan></text>
  </g>
</svg>
