<?xml version="1.0" encoding="UTF-8" standalone="no"?>
<svg xmlns:dc="http://purl.org/dc/elements/1.1/" xmlns:cc="http://creativecommons.org/ns#" xmlns:rdf="http://www.w3.org/1999/02/22-rdf-syntax-ns#" xmlns:svg="http://www.w3.org/2000/svg" xmlns="http://www.w3.org/2000/svg" xmlns:sodipodi="http://sodipodi.sourceforge.net/DTD/sodipodi-0.dtd" xmlns:inkscape="http://www.inkscape.org/namespaces/inkscape" width="657" height="1081" viewBox="0 0 450 740" version="1.1" id="svg8" inkscape:version="0.92.4 (5da689c313, 2019-01-14)" sodipodi:docname="KY-006.svg" inkscape:export-filename="C:\Users\Entwicklung5.SIMACGMBH\Desktop\SEN-KIT02\Abbildungen Fertig\KY-006\KY-006.png" inkscape:export-xdpi="93" inkscape:export-ydpi="93">
  <defs id="defs2">
    <inkscape:perspective sodipodi:type="inkscape:persp3d" inkscape:vp_x="0 : 148.49997 : 1" inkscape:vp_y="0 : 999.99993 : 0" inkscape:vp_z="210.00001 : 148.49997 : 1" inkscape:persp3d-origin="105 : 98.999996 : 1" id="perspective876"/>
  </defs>
  <sodipodi:namedview id="base" pagecolor="#ffffff" bordercolor="#666666" borderopacity="1.0" inkscape:pageopacity="0.0" inkscape:pageshadow="2" inkscape:zoom="0.24748737" inkscape:cx="-776.6644" inkscape:cy="1331.4845" inkscape:document-units="mm" inkscape:current-layer="layer1" showgrid="false" inkscape:window-width="1920" inkscape:window-height="1017" inkscape:window-x="-8" inkscape:window-y="-8" inkscape:window-maximized="1" width="500mm" showguides="true" inkscape:lockguides="true"/>
  <metadata id="metadata5">
    <rdf:RDF>
      <cc:Work rdf:about="">
        <dc:format>image/svg+xml</dc:format>
        <dc:type rdf:resource="http://purl.org/dc/dcmitype/StillImage"/>
        <dc:title/>
      </cc:Work>
    </rdf:RDF>
  </metadata>
  <g inkscape:label="Ebene 1" inkscape:groupmode="layer" id="layer1" transform="translate(0.31582593,442.81107)">
    <rect style="opacity:1;fill:#000000;fill-opacity:1;stroke:#000000;stroke-width:0;stroke-miterlimit:4;stroke-dasharray:none;stroke-opacity:1" id="rect815" width="450.50391" height="600" x="-0.31582406" y="-439.14639"/>
    <text xml:space="preserve" style="font-style:normal;font-variant:normal;font-weight:normal;font-stretch:normal;font-size:4.23333311px;line-height:1.25;font-family:Calibri;-inkscape-font-specification:'Calibri, Normal';font-variant-ligatures:normal;font-variant-caps:normal;font-variant-numeric:normal;font-feature-settings:normal;text-align:start;letter-spacing:0px;word-spacing:0px;writing-mode:lr-tb;text-anchor:start;fill:#ffffff;fill-opacity:1;stroke:none;stroke-width:0.26458332" x="61.988091" y="144.09303" id="text819"><tspan sodipodi:role="line" id="tspan817" x="61.988091" y="147.7972" style="fill:#ffffff;fill-opacity:1;stroke-width:0.26458332"/></text>
    <rect style="opacity:1;fill:#ffffff;fill-opacity:1;stroke:#000000;stroke-width:0;stroke-miterlimit:4;stroke-dasharray:none;stroke-opacity:1" id="rect821" width="234.39525" height="80.684937" x="106.20703" y="62.303185" ry="0"/>
    <rect style="opacity:1;fill:#1a1a1a;fill-opacity:1;stroke:#000000;stroke-width:0;stroke-miterlimit:4;stroke-dasharray:none;stroke-opacity:1" id="rect825" width="76.666504" height="70.899185" x="106.73194" y="66.866737" ry="14.842078"/>
    <rect y="66.866737" x="263.30661" height="70.899185" width="76.666504" id="rect872" style="opacity:1;fill:#1a1a1a;fill-opacity:1;stroke:#000000;stroke-width:0;stroke-miterlimit:4;stroke-dasharray:none;stroke-opacity:1" ry="14.842078"/>
    <rect y="66.866737" x="185.01929" height="70.899185" width="76.666504" id="rect874" style="opacity:1;fill:#1a1a1a;fill-opacity:1;stroke:#000000;stroke-width:0;stroke-miterlimit:4;stroke-dasharray:none;stroke-opacity:1" ry="12.930591"/>
    <rect style="opacity:0.98999999;fill:#808080;fill-opacity:1;stroke:#ffffff;stroke-width:0;stroke-linejoin:round;stroke-miterlimit:4;stroke-dasharray:none;stroke-opacity:1;paint-order:normal" id="rect947" width="8.5094872" height="147.90898" x="140.72737" y="105.45695"/>
    <rect y="105.45695" x="219.46759" height="147.90898" width="8.5094872" id="rect949" style="opacity:0.98999999;fill:#808080;fill-opacity:1;stroke:#ffffff;stroke-width:0;stroke-linejoin:round;stroke-miterlimit:4;stroke-dasharray:none;stroke-opacity:1;paint-order:normal"/>
    <rect style="opacity:0.98999999;fill:#808080;fill-opacity:1;stroke:#ffffff;stroke-width:0;stroke-linejoin:round;stroke-miterlimit:4;stroke-dasharray:none;stroke-opacity:1;paint-order:normal" id="rect951" width="8.5094872" height="147.90898" x="297.30167" y="105.45695"/>
    <text xml:space="preserve" style="font-style:normal;font-variant:normal;font-weight:normal;font-stretch:normal;font-size:11.28888893px;line-height:1.25;font-family:'Proxy 1';-inkscape-font-specification:'Proxy 1, ';font-variant-ligatures:normal;font-variant-caps:normal;font-variant-numeric:normal;font-feature-settings:normal;text-align:start;letter-spacing:0px;word-spacing:0px;writing-mode:lr-tb;text-anchor:start;fill:#000000;fill-opacity:1;stroke:none;stroke-width:0.26458332" x="-482.47003" y="-279.57489" id="text959"><tspan sodipodi:role="line" id="tspan957" x="-482.47003" y="-269.18103" style="fill:#000000;stroke-width:0.26458332"/></text>
    <text xml:space="preserve" style="font-style:normal;font-variant:normal;font-weight:normal;font-stretch:normal;font-size:11.28888893px;line-height:1.25;font-family:'Proxy 1';-inkscape-font-specification:'Proxy 1, ';font-variant-ligatures:normal;font-variant-caps:normal;font-variant-numeric:normal;font-feature-settings:normal;text-align:start;letter-spacing:0px;word-spacing:0px;writing-mode:lr-tb;text-anchor:start;fill:#ffffff;fill-opacity:1;stroke:none;stroke-width:0.26458332" x="49.365498" y="172.5137" id="text963"><tspan sodipodi:role="line" id="tspan961" x="49.365498" y="182.90758" style="fill:#ffffff;stroke-width:0.26458332"/></text>
    <text xml:space="preserve" style="font-style:normal;font-variant:normal;font-weight:normal;font-stretch:normal;font-size:11.28888893px;line-height:1.25;font-family:'Proxy 1';-inkscape-font-specification:'Proxy 1, ';font-variant-ligatures:normal;font-variant-caps:normal;font-variant-numeric:normal;font-feature-settings:normal;text-align:start;letter-spacing:0px;word-spacing:0px;writing-mode:lr-tb;text-anchor:start;fill:#00ff00;fill-opacity:1;stroke:none;stroke-width:0.26458332" x="124.98328" y="147.68375" id="text967"><tspan sodipodi:role="line" id="tspan965" x="124.98328" y="158.07762" style="fill:#00ff00;fill-opacity:1;stroke-width:0.26458332"/></text>
    <flowRoot xml:space="preserve" id="flowRoot969" style="font-style:normal;font-variant:normal;font-weight:normal;font-stretch:normal;font-size:42.66666794px;line-height:1.25;font-family:'Proxy 1';-inkscape-font-specification:'Proxy 1, ';font-variant-ligatures:normal;font-variant-caps:normal;font-variant-numeric:normal;font-feature-settings:normal;text-align:start;letter-spacing:0px;word-spacing:0px;writing-mode:lr-tb;text-anchor:start;fill:#000000;fill-opacity:1;stroke:none" transform="translate(0,-43.293868)"><flowRegion id="flowRegion971"><rect id="rect973" width="373.57144" height="181.42857" x="249.28572" y="630.71198"/></flowRegion><flowPara id="flowPara975"/></flowRoot>    <flowRoot xml:space="preserve" id="flowRoot1466" style="font-style:normal;font-variant:normal;font-weight:normal;font-stretch:normal;font-size:42.66666794px;line-height:1.25;font-family:Calibri;-inkscape-font-specification:Calibri;font-variant-ligatures:normal;font-variant-caps:normal;font-variant-numeric:normal;font-feature-settings:normal;text-align:start;letter-spacing:0px;word-spacing:0px;writing-mode:lr-tb;text-anchor:start;fill:#ffffff;fill-opacity:1;stroke:none" transform="translate(0,-43.293868)"><flowRegion id="flowRegion1468" style="font-style:normal;font-variant:normal;font-weight:normal;font-stretch:normal;font-family:Calibri;-inkscape-font-specification:Calibri;fill:#ffffff;fill-opacity:1"><rect id="rect1470" width="414.1825" height="372.47485" x="1288.5094" y="1923.5425" style="font-style:normal;font-variant:normal;font-weight:normal;font-stretch:normal;font-family:Calibri;-inkscape-font-specification:Calibri;fill:#ffffff;fill-opacity:1"/></flowRegion><flowPara id="flowPara1472"/></flowRoot>    <flowRoot xml:space="preserve" id="flowRoot1529" style="font-style:normal;font-variant:normal;font-weight:normal;font-stretch:normal;font-size:266.66665649px;line-height:1.25;font-family:'Proxy 1';-inkscape-font-specification:'Proxy 1, ';font-variant-ligatures:normal;font-variant-caps:normal;font-variant-numeric:normal;font-feature-settings:normal;text-align:start;letter-spacing:0px;word-spacing:0px;writing-mode:lr-tb;text-anchor:start;fill:#000000;fill-opacity:1;stroke:none" transform="translate(0,-43.293868)"><flowRegion id="flowRegion1531" style="font-size:266.66665649px"><rect id="rect1533" width="2157.6858" height="2311.229" x="-2691.0464" y="-332.2605" style="font-size:266.66665649px"/></flowRegion><flowPara id="flowPara1535"/></flowRoot>    <rect ry="0" y="-22.533819" x="63.011227" height="80.684937" width="320.70575" id="rect87" style="opacity:1;fill:#000000;fill-opacity:1;stroke:#000000;stroke-width:0;stroke-miterlimit:4;stroke-dasharray:none;stroke-opacity:1"/>
    <path style="fill:#ffffff;stroke-width:0.16109252" d="m 127.72657,-394.25532 c 2.7857,-0.053 3.0903,-0.0873 3.6099,-0.40637 0.3121,-0.19165 0.7134,-0.58751 0.8918,-0.87968 0.3065,-0.50219 0.3268,-0.86111 0.372,-6.56709 l 0.048,-6.03587 5.9513,0.0339 5.9513,0.0339 v 7.52247 c 0,8.29381 -0.065,9.07486 -0.9305,11.25297 -1.1341,2.8536 -2.7892,4.17783 -6.2033,4.96324 -0.9163,0.21079 -1.963,0.25628 -5.4317,0.2361 -2.3632,-0.0137 -4.9533,-0.0839 -5.7559,-0.15599 l -1.4593,-0.13098 -0.043,-4.90434 -0.043,-4.90431 3.0424,-0.0579 z m 56.66991,16.8447 c 50.78319,0.0134 63.27559,0.0732 61.16689,0.29299 l -0.3243,0.0338 0.3243,0.13756 c 0.27141,0.11511 0.23171,0.1439 -0.2432,0.17643 -0.3757,0.0257 -0.21119,0.0743 0.4864,0.14367 l 1.05391,0.10481 -1.05391,0.0462 c -0.57959,0.0253 -0.92619,0.0791 -0.77009,0.11939 0.2417,0.0623 0.28369,0.2715 0.28369,1.41128 0,1.33686 5.3e-4,1.33814 0.4459,1.40476 0.3131,0.0469 0.24061,0.0738 -0.2432,0.0907 -0.37899,0.0132 -0.68909,0.096 -0.68909,0.18403 0,0.10642 -20.13231,0.16006 -60.07251,0.16006 h -60.0725 v -2.16072 -2.16071 z m -45.76381,-46.27108 h 5.9992 v 4.8816 4.88162 h -5.9992 -5.9991 v -4.88162 -4.8816 z m 12.0984,18.00594 c 0.4267,-2.74566 1.1858,-5.18604 2.2902,-7.36243 0.4021,-0.79227 0.779,-1.47649 0.8376,-1.5205 0.059,-0.0441 0.3596,-0.47541 0.6688,-0.95865 0.6245,-0.97602 2.0489,-2.73206 2.3772,-2.93059 0.1165,-0.0704 0.2117,-0.19355 0.2117,-0.27368 0,-0.21222 1.5002,-1.56418 2.6724,-2.40822 1.23511,-0.88946 2.2408,-1.38868 4.4617,-2.21492 2.5918,-0.96422 4.1118,-1.19315 7.2152,-1.08666 2.2505,0.0772 2.8091,0.15243 4.2156,0.56763 0.89181,0.26323 1.974,0.62796 2.405,0.8105 0.431,0.18254 0.8606,0.33189 0.9547,0.33189 0.094,0 0.7609,0.34213 1.482,0.76026 2.8737,1.66651 6.79191,6.11485 8.3028,9.42628 2.36701,5.18738 2.6651,10.39725 0.8705,15.20943 -0.7548,2.02403 -1.2997,3.17579 -2.1779,4.60398 -1.0147,1.64997 -1.0967,1.74608 -3.56119,4.17307 -2.82611,2.78313 -4.85381,3.96339 -8.53961,4.97073 -1.8785,0.5134 -5.5699,0.70742 -7.56059,0.39739 -2.58861,-0.40313 -6.03551,-1.8571 -8.16361,-3.44352 -1.0992,-0.81944 -2.577,-2.10985 -2.577,-2.25028 0,-0.0426 -0.3709,-0.45516 -0.8242,-0.91701 -2.1567,-2.19738 -4.3782,-6.49712 -5.1886,-10.04278 -0.3024,-1.32291 -0.5272,-4.84736 -0.3727,-5.84192 z m 11.4734,5.06115 c 0.582,2.26353 1.7349,4.19807 3.51811,5.90326 1.80349,1.72457 4.67399,2.36728 7.14489,1.59976 2.7216,-0.84539 5.4153,-4.02492 6.3052,-7.44249 0.5102,-1.95898 0.4731,-4.81748 -0.087,-6.71625 -0.79549,-2.69647 -2.2144,-4.80451 -4.18489,-6.21721 -0.90251,-0.64705 -1.31849,-0.83239 -2.26999,-1.01152 -2.03852,-0.38377 -4.12372,-0.17482 -5.58142,0.55926 -1.2812,0.64523 -2.9072,2.47064 -3.8404,4.31142 -1.40889,2.77924 -1.77128,6.03121 -1.0045,9.01377 z m 33.7126,-22.99718 c 0.1075,-0.0407 2.8135,-0.0551 6.0133,-0.0319 l 5.8178,0.0421 0.018,5.36176 c 0.017,5.06542 0.038,5.4136 0.3673,6.29939 0.84722,2.27724 3.59731,3.52518 6.00941,2.72693 1.23951,-0.41018 2.076,-1.13039 2.67611,-2.30409 l 0.53178,-1.04034 0.048,-5.56185 0.048,-5.56182 h 6.0044 6.00441 l -0.065,6.28206 c -0.061,5.84609 -0.09,6.37094 -0.4192,7.5625 -0.6701,2.42345 -1.7404,4.54204 -3.1273,6.19075 -0.3465,0.41192 -0.6301,0.81883 -0.6301,0.90424 0,0.2087 -1.51791,1.56608 -2.86431,2.56144 -1.141,0.84347 -2.7639,1.69793 -3.5606,1.87464 -0.2563,0.0568 -1.0861,0.29454 -1.8441,0.5282 -1.277,0.39364 -1.5926,0.42484 -4.2967,0.42484 -2.7164,0 -3.0308,-0.0314 -4.5399,-0.45407 -2.3888,-0.66897 -3.1696,-1.00312 -4.7588,-2.03662 -1.8014,-1.17149 -3.3173,-2.67481 -4.5783,-4.54048 -1.7802,-2.63371 -2.5253,-4.58908 -2.9013,-7.61366 -0.2454,-1.97365 -0.2074,-11.51788 0.046,-11.61393 z m 16.73211,29.53986 h 9.80939 v 5.04165 5.04167 h -9.80939 -9.8094 v -5.04167 -5.04165 z m 16.7814,-37.29231 c 0.089,0 0.16209,-0.2783 0.16209,-0.61845 0,-0.61442 0.01,-0.61913 0.75231,-0.72025 0.4137,-0.056 17.03099,-0.10189 36.92709,-0.10204 l 36.175,-2.7e-4 -0.049,2.16099 -0.049,2.16097 h -36.7836 c -20.23091,0 -36.8989,-0.0438 -37.03991,-0.0972 -0.20569,-0.0778 -0.25649,-0.36319 -0.25649,-1.44047 0,-0.78885 0.067,-1.34333 0.1621,-1.34333 z m 16.53819,24.16797 h 12.48471 v 4.96164 4.96165 h -12.48471 -12.4847 v -4.96165 -4.96164 z m 22.37521,-16.48543 h 5.99909 v 4.8816 4.88162 h -5.99909 -5.9992 v -4.88162 -4.8816 z m 0,14.8849 h 5.99909 v 12.64418 12.64416 h -5.99909 -5.9992 v -12.64416 -12.64418 z m 23.91539,-14.8849 h 12.56581 v 4.8816 4.88162 h -12.56581 -12.5657 v -4.88162 -4.8816 z m -10.47779,15.6173 c 0.078,-0.0477 2.7357,-0.0845 5.9057,-0.0817 l 5.7635,0.005 0.053,5.79413 c 0.074,8.12614 -0.25971,7.68265 5.8493,7.76953 l 3.8508,0.0548 v 5.08601 5.08599 l -1.4297,0.181 c -2.1584,0.27324 -9.0233,0.2324 -10.8793,-0.0647 -3.19091,-0.51085 -5.2624,-1.49434 -6.64781,-3.15623 -1.43779,-1.7248 -2.12069,-3.48261 -2.44039,-6.28127 -0.2014,-1.76273 -0.22321,-14.27174 -0.025,-14.39259 z m 30.0963,-20.38937 c 0.3026,-1.06226 0.8999,-2.08154 1.55969,-2.66184 2.71741,-2.39014 5.99291,-2.64285 8.68051,-0.66974 1.2609,0.9257 1.5746,1.28517 2.1139,2.42225 0.4092,0.86267 0.455,1.12996 0.4524,2.64039 0,1.51015 -0.05,1.78266 -0.4711,2.68752 -0.9106,1.9586 -3.2071,3.49893 -5.4612,3.66299 -2.10041,0.15286 -3.7035,-0.46488 -5.3594,-2.06516 -1.4774,-1.4277 -2.1083,-3.93353 -1.5148,-6.01641 z m 1.181,4.13186 c 0.5473,1.29139 2.2439,2.56064 3.992,2.98648 1.7497,0.42622 3.0778,0.0689 5.0707,-1.36413 0.4774,-0.34327 0.8348,-0.80792 1.2114,-1.57483 0.4752,-0.96791 0.5346,-1.23965 0.5388,-2.46445 0,-1.26208 -0.043,-1.46792 -0.5627,-2.47465 -0.4599,-0.8898 -0.752,-1.2272 -1.5403,-1.77886 -0.5351,-0.37444 -1.3377,-0.80402 -1.7836,-0.95465 -2.7365,-0.92443 -6.0256,0.5636 -7.1254,3.22363 -0.4177,1.01024 -0.3197,3.17753 0.1991,4.40146 z m 4.4431,-6.24216 c 1.2204,5e-5 2.406,0.0704 2.6347,0.15616 0.9804,0.36795 1.4232,2.23162 0.7354,3.09483 -0.1811,0.22721 -0.5788,0.5022 -0.8838,0.61108 l -0.5546,0.19796 0.5565,0.6081 c 0.3061,0.33446 0.7837,1.00548 1.0614,1.49119 0.2777,0.4857 0.5709,0.92335 0.6516,0.97256 0.3479,0.21226 0.096,0.39007 -0.5425,0.38233 l -0.6891,-0.009 -0.9728,-1.52548 c -1.04,-1.63082 -1.2926,-1.81889 -2.4426,-1.81889 h -0.7191 v 1.6907 1.69069 l -0.489,-0.0501 -0.4891,-0.0502 -0.038,-3.72133 -0.038,-3.72133 z m 0.2725,3.20115 c 1.2086,0 1.5054,-0.0528 1.8646,-0.33172 0.8908,-0.69174 0.385,-1.80672 -0.8988,-1.98116 -0.5376,-0.073 -2.0652,-0.0347 -2.3627,0.0593 -0.022,0.007 -0.041,0.51696 -0.041,1.13317 v 1.12037 z" id="path31-1" inkscape:connector-curvature="0"/>
    <circle style="opacity:0.98999999;fill:#cccccc;fill-opacity:1;stroke:#ffffff;stroke-width:0;stroke-linejoin:round;stroke-miterlimit:4;stroke-dasharray:none;stroke-opacity:1;paint-order:normal" id="path84" cx="-358.10492" cy="64.684174" transform="matrix(0,1,1,0,0,0)" r="45"/>
    <circle r="45" transform="matrix(0,1,1,0,0,0)" cy="384.68417" cx="-358.10492" id="circle86" style="opacity:0.98999999;fill:#cccccc;fill-opacity:1;stroke:#ffffff;stroke-width:0;stroke-linejoin:round;stroke-miterlimit:4;stroke-dasharray:none;stroke-opacity:1;paint-order:normal"/>
    <circle style="opacity:0.98999999;fill:#ffffff;fill-opacity:1;stroke:#ffffff;stroke-width:0;stroke-linejoin:round;stroke-miterlimit:4;stroke-dasharray:none;stroke-opacity:1;paint-order:normal" id="path88" cx="64.684174" cy="-358.10492" r="40"/>
    <circle r="40" cy="-358.10492" cx="384.68417" id="circle90" style="opacity:0.98999999;fill:#ffffff;fill-opacity:1;stroke:#ffffff;stroke-width:0;stroke-linejoin:round;stroke-miterlimit:4;stroke-dasharray:none;stroke-opacity:1;paint-order:normal"/>
    <flowRoot transform="matrix(0.7011345,0,0,0.26458333,544.55283,-827.59982)" style="font-style:normal;font-variant:normal;font-weight:normal;font-stretch:normal;font-size:266.66665649px;line-height:1.25;font-family:Calibri;-inkscape-font-specification:Calibri;font-variant-ligatures:normal;font-variant-caps:normal;font-variant-numeric:normal;font-feature-settings:normal;text-align:start;letter-spacing:0px;word-spacing:0px;writing-mode:lr-tb;text-anchor:start;fill:#ffffff;fill-opacity:1;stroke:none" id="flowRoot102" xml:space="preserve"><flowRegion style="font-style:normal;font-variant:normal;font-weight:normal;font-stretch:normal;font-size:266.66665649px;font-family:Calibri;-inkscape-font-specification:Calibri;fill:#ffffff" id="flowRegion98"><rect style="font-style:normal;font-variant:normal;font-weight:normal;font-stretch:normal;font-size:266.66665649px;font-family:Calibri;-inkscape-font-specification:Calibri;fill:#ffffff" y="1923.5425" x="-341.43155" height="572.62415" width="744.03766" id="rect96"/></flowRegion><flowPara id="flowPara100">-</flowPara></flowRoot>    <circle style="opacity:0.98999999;fill:#333333;fill-opacity:1;stroke:#ffffff;stroke-width:0;stroke-linejoin:round;stroke-miterlimit:4;stroke-dasharray:none;stroke-opacity:1;paint-order:normal" id="path92" cx="224.68417" cy="-141.10495" r="175"/>
    <circle style="opacity:0.98999999;fill:#cccccc;fill-opacity:1;stroke:#ffffff;stroke-width:0;stroke-linejoin:round;stroke-miterlimit:4;stroke-dasharray:none;stroke-opacity:1;paint-order:normal" id="path94" cx="224.68417" cy="-141.10493" r="50"/>
    <flowRoot xml:space="preserve" id="flowRoot113" style="font-style:normal;font-variant:normal;font-weight:normal;font-stretch:normal;font-size:266.66665649px;line-height:1.25;font-family:Calibri;-inkscape-font-specification:Calibri;font-variant-ligatures:normal;font-variant-caps:normal;font-variant-numeric:normal;font-feature-settings:normal;text-align:start;letter-spacing:0px;word-spacing:0px;writing-mode:lr-tb;text-anchor:start;fill:#ffffff;fill-opacity:1;stroke:none" transform="matrix(0.25520016,0,0,0.22819872,164.37131,-750.33646)"><flowRegion id="flowRegion109" style="font-style:normal;font-variant:normal;font-weight:normal;font-stretch:normal;font-size:266.66665649px;font-family:Calibri;-inkscape-font-specification:Calibri;fill:#ffffff"><rect id="rect107" width="744.03766" height="572.62415" x="-341.43155" y="1923.5425" style="font-style:normal;font-variant:normal;font-weight:normal;font-stretch:normal;font-size:266.66665649px;font-family:Calibri;-inkscape-font-specification:Calibri;fill:#ffffff"/></flowRegion><flowPara id="flowPara111">+</flowPara></flowRoot>    <text xml:space="preserve" style="font-style:normal;font-variant:normal;font-weight:normal;font-stretch:normal;font-size:52.17420197px;line-height:1.25;font-family:Calibri;-inkscape-font-specification:Calibri;font-variant-ligatures:normal;font-variant-caps:normal;font-variant-numeric:normal;font-feature-settings:normal;text-align:start;letter-spacing:0px;word-spacing:0px;writing-mode:lr-tb;text-anchor:start;fill:#000000;fill-opacity:1;stroke:none;stroke-width:1.2228328" x="268.35718" y="287.58463" id="text89"><tspan sodipodi:role="line" id="tspan87" x="268.35718" y="287.58463" style="fill:#000000;stroke-width:1.2228328">GND</tspan></text>
    <text id="text101" y="287.89032" x="196.16374" style="font-style:normal;font-variant:normal;font-weight:normal;font-stretch:normal;font-size:52.17420197px;line-height:1.25;font-family:Calibri;-inkscape-font-specification:Calibri;font-variant-ligatures:normal;font-variant-caps:normal;font-variant-numeric:normal;font-feature-settings:normal;text-align:start;letter-spacing:0px;word-spacing:0px;writing-mode:lr-tb;text-anchor:start;fill:#000000;fill-opacity:1;stroke:none;stroke-width:1.2228328" xml:space="preserve"><tspan style="fill:#000000;stroke-width:1.2228328" y="287.89032" x="196.16374" sodipodi:role="line" id="tspan103">+V</tspan></text>
    <text xml:space="preserve" style="font-style:normal;font-variant:normal;font-weight:normal;font-stretch:normal;font-size:52.17420197px;line-height:1.25;font-family:Calibri;-inkscape-font-specification:Calibri;font-variant-ligatures:normal;font-variant-caps:normal;font-variant-numeric:normal;font-feature-settings:normal;text-align:start;letter-spacing:0px;word-spacing:0px;writing-mode:lr-tb;text-anchor:start;fill:#000000;fill-opacity:1;stroke:none;stroke-width:1.2228328" x="54.800613" y="287.89032" id="text109"><tspan id="tspan107" sodipodi:role="line" x="54.800613" y="287.89032" style="fill:#000000;stroke-width:1.2228328">Signal</tspan></text>
    <text xml:space="preserve" style="font-style:normal;font-variant:normal;font-weight:normal;font-stretch:normal;font-size:63.5px;line-height:1.25;font-family:Calibri;-inkscape-font-specification:Calibri;font-variant-ligatures:normal;font-variant-caps:normal;font-variant-numeric:normal;font-feature-settings:normal;text-align:start;letter-spacing:0px;word-spacing:0px;writing-mode:lr-tb;text-anchor:start;fill:#ffffff;fill-opacity:1;stroke:none;stroke-width:0.26458332" x="67.482063" y="46.231815" id="text72" transform="rotate(-90)"><tspan sodipodi:role="line" id="tspan70" x="67.482063" y="46.231815" style="fill:#ffffff;stroke-width:0.26458332">KY-006</tspan></text>
    <text id="text76" y="120.54211" x="66.37957" style="font-style:normal;font-variant:normal;font-weight:normal;font-stretch:normal;font-size:63.5px;line-height:1.25;font-family:Calibri;-inkscape-font-specification:Calibri;font-variant-ligatures:normal;font-variant-caps:normal;font-variant-numeric:normal;font-feature-settings:normal;text-align:start;letter-spacing:0px;word-spacing:0px;writing-mode:lr-tb;text-anchor:start;fill:#ffffff;fill-opacity:1;stroke:none;stroke-width:0.26458332" xml:space="preserve"><tspan style="fill:#ffffff;stroke-width:0.26458332" y="120.54211" x="66.37957" id="tspan74" sodipodi:role="line">S</tspan></text>
    <text xml:space="preserve" style="font-style:normal;font-variant:normal;font-weight:normal;font-stretch:normal;font-size:102.8181076px;line-height:1.25;font-family:Calibri;-inkscape-font-specification:Calibri;font-variant-ligatures:normal;font-variant-caps:normal;font-variant-numeric:normal;font-feature-settings:normal;text-align:start;letter-spacing:0px;word-spacing:0px;writing-mode:lr-tb;text-anchor:start;fill:#ffffff;fill-opacity:1;stroke:none;stroke-width:0.42840874" x="216.46228" y="195.1797" id="text80" transform="scale(1.6191827,0.61759551)"><tspan sodipodi:role="line" id="tspan78" x="216.46228" y="195.1797" style="fill:#ffffff;stroke-width:0.42840874">-</tspan></text>
  </g>
</svg>
